<svg width="66" height="38" viewBox="0 0 66 38" fill="none" xmlns="http://www.w3.org/2000/svg">
<path d="M47.1616 19.1416C47.9031 24.9607 48.5913 30.4241 49.3057 35.8817C49.3904 36.5355 49.2549 36.7661 48.5227 36.8028C44.1134 37.0218 44.1159 37.0393 42.522 33.0242C41.8583 31.3535 41.2116 29.6762 40.5048 28.0222C40.3493 27.7503 40.2919 27.4346 40.342 27.1266C40.3921 26.8185 40.5467 26.5362 40.7808 26.3257C42.8665 24.047 44.8981 21.7067 47.1616 19.1416Z" fill="black"/>
<path d="M21.2447 24.0186C21.8762 27.2217 22.4992 30.2324 23.0477 33.2564C23.217 34.1925 23.9789 35.3818 23.3271 36.0148C22.765 36.5586 21.5173 35.7891 20.5582 35.8241C18.0103 35.919 16.8244 34.7414 16.4105 32.2687C16.1675 30.817 16.06 29.8118 17.2764 28.6875C18.6963 27.2136 20.0216 25.6543 21.2447 24.0186Z" fill="black"/>
<path d="M28.4392 29.8609C28.4392 28.062 28.4113 26.2631 28.4528 24.465C28.4689 23.7587 28.2691 23.5205 27.5064 23.4956C22.3034 23.3262 17.1015 23.1208 11.9007 22.8793C11.0838 22.8418 10.7613 23.07 10.5878 23.8645C9.7853 27.544 8.87447 31.2018 8.09063 34.8855C7.87054 35.9199 7.46932 36.3013 6.36974 36.1839C5.14968 36.0594 3.92142 36.0316 2.69683 36.1006C1.77416 36.1464 1.59641 35.7674 1.60995 34.9771C1.68952 29.452 1.80719 23.927 1.75301 18.4036C1.74302 16.7039 2.31994 15.0513 3.38927 13.7164C6.26732 9.78118 9.03955 5.77523 11.8279 1.77926C11.9783 1.50564 12.2149 1.28751 12.5023 1.15772C12.7896 1.02794 13.112 0.993528 13.4209 1.05968C23.8174 2.15403 34.2179 3.21424 44.6223 4.24029C45.2731 4.31705 45.8944 4.55078 46.4313 4.92073C52.6224 8.87921 58.8026 12.8519 65.0251 16.762C65.9562 17.345 65.9816 17.6782 65.0869 18.2054C64.8942 18.3077 64.7221 18.4437 64.579 18.6068C62.787 20.8846 60.6852 20.7822 58.1457 19.7728C55.0764 18.556 51.8394 17.749 48.6922 16.7146C48.3927 16.5951 48.0679 16.5499 47.7464 16.5828C47.4249 16.6158 47.1166 16.726 46.8486 16.9036C43.9536 18.6726 41.0454 20.4199 38.1239 22.1455C37.8607 22.2842 37.636 22.484 37.4691 22.7275C37.3023 22.9711 37.1984 23.251 37.1665 23.543C36.5257 27.3408 35.7926 31.1219 35.2035 34.9296C35.0342 36.0206 34.6389 36.3663 33.5368 36.2905C32.1371 36.209 30.7339 36.2068 29.334 36.2838C28.5036 36.3205 28.2911 36.034 28.3182 35.2553C28.3724 33.4571 28.3351 31.6565 28.3351 29.8576L28.4392 29.8609Z" fill="black"/>
</svg>
