<svg width="109" height="136" viewBox="0 0 109 136" fill="none" xmlns="http://www.w3.org/2000/svg">
<path d="M30.8355 54.0316C34.6259 60.2739 39.3383 66.0045 44.7679 70.9165C48.5583 74.3958 50.812 79.3078 50.812 84.4244V123.925C30.7331 106.733 22.9474 79.3078 30.8355 54.0316ZM58.188 84.4244C58.188 79.3078 60.3393 74.3958 64.2321 70.9165C69.6617 66.0045 74.3741 60.3762 78.1645 54.0316C80.2133 60.3762 81.2378 67.0278 81.2378 73.7818C81.2378 93.0203 72.8374 111.236 58.2904 123.822V84.4244H58.188ZM41.1823 55.9759C36.265 49.4266 36.265 40.4214 41.1823 33.8721C44.9727 28.8578 49.3778 24.4575 54.3976 20.6712C59.5197 24.4575 64.0273 28.9601 67.9201 34.0768C72.735 40.5237 72.735 49.3243 67.9201 55.7713C64.1297 60.8879 59.5197 65.3905 54.3976 69.1768C49.4803 65.5952 44.9727 60.9902 41.1823 55.9759ZM93.9408 0.204666C79.906 0.204666 66.281 4.19564 54.5 11.7682C42.719 4.29797 29.094 0.306999 15.1616 0.204666H14.9568H14.8543C9.93703 0.204666 4.91729 0.716329 0 1.73965L1.84398 9.00527C6.14661 8.18661 10.5517 7.67494 14.8543 7.67494C26.4305 7.67494 37.8017 10.6426 47.8412 16.3732C16.0836 41.854 11.0639 88.2107 36.5724 119.934C41.0799 125.562 46.407 130.474 52.3487 134.567L54.5 136L56.6513 134.567C71.5056 124.334 82.1598 109.087 86.5648 91.5877C93.531 63.7532 83.594 34.3837 61.1588 16.3732C75.0912 8.39127 91.4821 5.83296 107.156 8.90294L109 1.63732C104.083 0.613998 99.1654 0.102333 94.1457 0C94.0432 0.204665 93.9408 0.204666 93.9408 0.204666Z" fill="url(#paint0_linear_2_1066)"/>
<defs>
<linearGradient id="paint0_linear_2_1066" x1="53.2532" y1="-14.2878" x2="64.4532" y2="129.069" gradientUnits="userSpaceOnUse">
<stop stop-color="#1D1B2C"/>
<stop offset="0.3547" stop-color="#23428B"/>
<stop offset="0.7011" stop-color="#45B7E9"/>
<stop offset="1" stop-color="#62268A"/>
</linearGradient>
</defs>
</svg>
