<svg width="142" height="147" viewBox="0 0 142 147" fill="none" xmlns="http://www.w3.org/2000/svg">
<path d="M130.531 61.0761L71.1924 94.6539L8.15003 58.8879L5.20201 60.4724V86.4292L71.268 124.006L130.606 90.4284V104.237L71.268 137.815L8.15003 102.049L5.20201 103.633V108.01L71.268 145.587L137.561 108.01V82.0528L134.613 80.4682L71.1924 116.234L12.0807 82.6564V69.0744L71.1924 102.426L137.485 64.8489V39.2693L134.084 37.4584L71.1924 72.9981L15.2555 41.2312L71.1924 9.69065L117.378 35.6475L121.536 33.4592V30.2901L71.1924 1.9187L5.12642 39.3448V43.3439L71.1924 80.921L130.531 47.3431V61.0761Z" fill="#FF3621"/>
</svg>
