<svg width="162" height="100" viewBox="0 0 162 100" fill="none" xmlns="http://www.w3.org/2000/svg">
<path d="M160.9 88.5003C159.7 89.7003 154.9 85.5003 153.3 83.1003C153.6 86.1003 152.5 92.0002 151 91.9002C148.2 91.8002 146.4 83.8002 147.5 78.4002C130.1 68.4002 112.5 77.1003 112.5 77.1003H112.6C114.8 77.4003 119.9 77.9002 119.8 80.2002C119.7 81.7002 113.1 86.2003 92.4 84.5003C85.9 90.0003 59.6 101.8 36.3 97.9002C19.4 93.9002 10.4 86.1003 5.60001 78.0003C9.90001 81.0003 28 91.2003 63.5 80.0003C104.5 67.0003 117.6 59.9002 151.5 68.7002V68.8003C152.3 70.7003 153 72.7002 153.4 74.7002C159.1 78.5002 162.6 86.8003 160.9 88.5003Z" fill="#B7E3FF"/>
<path d="M144.1 56.2999C147.1 60.1999 149.6 64.3999 151.5 68.8999C117.5 59.9999 104.5 67.1999 63.5 80.1999C28 91.4999 9.90001 81.2999 5.60001 78.1999V78.0999C1.10001 69.9999 -0.299991 60.4999 1.60001 51.3999C2.30001 50.5999 3.20001 49.7999 4.20001 48.8999C8.10001 52.3999 27.1 67.0999 64.2 57.8999C64.1 57.7999 122.1 43.0999 144.1 56.2999Z" fill="#52AAFF"/>
<path d="M124.7 39.3003C132.2 43.7003 138.7 49.4003 144.1 56.3003C122.1 43.2003 64.1 57.9003 64.1 57.9003C27.1 67.2003 8.00001 52.5003 4.10001 49.0003C13.9 40.8003 25.2 34.6003 37.4 30.8003C46.4 34.8003 56.3 36.2003 66 34.7003C83.3 32.1003 103.7 31.7003 124.7 39.3003Z" fill="#0175F2"/>
<path d="M116.6 35.0003C119.4 36.3003 122.1 37.7003 124.8 39.3003C103.8 31.7003 83.4 32.1003 66.1 34.5003C56.4 36.0003 46.4 34.6003 37.5 30.6003C58.8 23.9003 81.6 23.6003 103 29.8003C107.5 31.2003 112.1 32.9003 116.6 35.0003Z" fill="#015BCB"/>
<path d="M64.2 5.30012C64.2 7.00012 63.2 8.50011 61.6 9.20011C58.1 10.9001 55.2 13.8001 53.5 17.3001C52.4 12.4001 53.5 7.20011 56.4 3.20011C56.5 3.00011 56.7 2.80011 56.9 2.60011C57.7 1.70011 58.8 1.20012 60 1.30012C62.4 1.10012 64.2 3.00012 64.2 5.30012Z" fill="#015BCB"/>
<path d="M49.8 21.5003C49.8 22.2003 49.8 22.8003 49.7 23.4003C47.7 21.3003 45.1 19.8003 42.3 18.9003C42.2 18.9003 42.2 18.9003 42.1 18.8003C39.8 18.1003 38.5 15.6003 39.2 13.2003C39.9 10.9003 42.4 9.60034 44.8 10.3003C45.9 10.6003 46.8 11.4003 47.4 12.4003C49 15.3003 49.8 18.4003 49.8 21.5003Z" fill="#015BCB"/>
<path d="M67.3 83.2001C69.3987 83.2001 71.1 81.4988 71.1 79.4001C71.1 77.3014 69.3987 75.6001 67.3 75.6001C65.2013 75.6001 63.5 77.3014 63.5 79.4001C63.5 81.4988 65.2013 83.2001 67.3 83.2001Z" fill="#0175F2"/>
</svg>
