<svg width="40" height="40" viewBox="0 0 40 40" fill="none" xmlns="http://www.w3.org/2000/svg">
<path d="M9.64007 35.4287L1.33307 21.0773C0.888955 20.3104 0.888955 19.3641 1.33307 18.5972L9.64007 4.2396C10.0833 3.47359 10.9023 3.00179 11.7977 3H28.4234C29.3071 3.00448 30.1226 3.47539 30.5631 4.2396L38.8791 18.5981C39.3232 19.365 39.3232 20.3113 38.8791 21.0782L30.5541 35.4287C30.1109 36.1947 29.2919 36.6665 28.3964 36.6683H11.7735C10.8888 36.6656 10.0725 36.1929 9.62928 35.4287H9.64007Z" fill="#4386FA"/>
<path opacity="0.1" d="M25.2876 15.1968C25.2876 15.1968 27.5981 20.7238 24.4488 23.8578C21.2995 26.9918 15.5664 24.9853 15.5664 24.9853L27.2295 36.6664H28.4135C29.2999 36.6646 30.119 36.1928 30.5712 35.4268L36.0714 25.9244L25.2876 15.1968Z" fill="black"/>
<path d="M28.0162 26.5173L25.4629 23.9816C25.4355 23.9532 25.404 23.929 25.3694 23.9099C26.4483 22.5153 26.9538 20.7629 26.7832 19.0095C26.6125 17.2562 25.7784 15.6336 24.4507 14.4722C23.123 13.3109 21.4016 12.698 19.637 12.7585C17.8723 12.8189 16.1971 13.5482 14.9524 14.7977C12.3695 17.3944 12.2553 21.5545 14.6935 24.2785C15.869 25.5932 17.5021 26.4121 19.2609 26.5689C21.0198 26.7256 22.7725 26.2085 24.1629 25.1226C24.1815 25.1552 24.2041 25.1854 24.2304 25.2123L26.7836 27.7596C26.8206 27.7966 26.8647 27.8259 26.9131 27.8457C26.9616 27.8656 27.0135 27.8757 27.0659 27.8753C27.1715 27.875 27.2728 27.8335 27.3482 27.7596L28.0252 27.0842C28.0622 27.0473 28.0916 27.0033 28.1115 26.955C28.1314 26.9066 28.1415 26.8548 28.1411 26.8026C28.1408 26.6972 28.0992 26.5961 28.0252 26.5209L28.0162 26.5173ZM19.8827 24.8705C18.8499 24.8703 17.8404 24.5645 16.9818 23.992C16.1231 23.4195 15.4538 22.6059 15.0585 21.654C14.2494 19.7076 14.6971 17.4652 16.1913 15.9763C16.9218 15.2482 17.8522 14.7525 18.865 14.5518C19.8778 14.3511 20.9275 14.4544 21.8814 14.8486C22.8354 15.2428 23.6509 15.9102 24.2248 16.7666C24.7987 17.623 25.1054 18.6299 25.106 19.6601C25.1042 22.5366 22.7686 24.8678 19.8845 24.8696L19.8827 24.8705ZM16.5455 19.382V21.5347C16.8781 22.1204 17.3591 22.6075 17.9408 22.9492V19.3775L16.5455 19.382ZM19.1527 17.5971V23.4156C19.6139 23.5 20.0877 23.5 20.548 23.4156V17.5881L19.1527 17.5971ZM23.1911 21.532V20.2583H21.7958V22.9438C22.3766 22.603 22.8567 22.1186 23.1911 21.5338V21.532Z" fill="white"/>
</svg>
