<svg width="143" height="141" viewBox="0 0 143 141" fill="none" xmlns="http://www.w3.org/2000/svg">
<path d="M2.08002 70.6001V116.2C2.08002 129.6 12.88 140.4 26.28 140.4H117.18C130.58 140.4 141.38 129.6 141.38 116.2V70.6001H2.08002ZM59.18 107C58.68 109.4 57.88 111.2 56.58 112.4C56.38 112.6 56.18 112.7 55.98 112.9C55.68 113.1 55.38 113.3 55.08 113.5C54.58 113.8 54.08 114 53.48 114.2C53.18 114.3 52.98 114.4 52.68 114.4C51.88 114.6 50.98 114.7 49.98 114.7C47.08 114.7 44.18 114.7 41.28 114.7H41.08C40.98 114.7 40.88 114.7 40.78 114.7C40.68 114.7 40.68 114.7 40.58 114.7C40.48 114.7 40.48 114.6 40.38 114.6C40.28 114.6 40.28 114.5 40.18 114.5C39.98 114.3 39.88 113.9 39.88 113.4C39.98 108.9 39.88 104.3 39.88 99.7001C39.88 95.4001 39.98 91.0001 39.88 86.7001C39.78 85.7001 39.98 85.1001 40.58 84.9001C40.68 84.9001 40.78 84.8001 40.78 84.8001C40.88 84.8001 40.88 84.8001 40.98 84.8001C41.28 84.8001 41.48 84.7001 41.88 84.8001C44.48 84.9001 47.08 84.8001 49.68 84.8001C50.78 84.8001 51.78 84.9001 52.68 85.1001C52.98 85.2001 53.28 85.2001 53.58 85.3001C54.58 85.6001 55.58 86.1001 56.28 86.7001C56.68 87.0001 57.08 87.4001 57.38 87.9001C58.38 89.2001 59.08 90.9001 59.38 93.1001C60.08 97.7001 60.08 102.4 59.18 107ZM82.78 108.9C82.48 110.3 81.88 111.4 80.98 112.3C80.78 112.5 80.58 112.7 80.38 112.8C79.18 113.8 77.48 114.4 75.58 114.6C75.28 114.6 74.88 114.7 74.58 114.7C71.28 114.7 67.98 114.7 64.68 114.7C64.18 114.7 63.78 114.6 63.68 114.3C63.58 114.1 63.58 113.9 63.58 113.5C63.58 104.3 63.58 95.2001 63.58 86.0001C63.58 85.6001 63.48 85.0001 63.88 84.8001C63.98 84.8001 64.18 84.7001 64.28 84.7001C68.48 84.8001 72.58 84.3001 76.68 85.0001C80.08 85.6001 81.68 87.6001 82.18 91.2001C82.38 92.6001 82.28 93.8001 81.88 94.9001C81.68 95.4001 81.48 95.8001 81.28 96.2001C81.08 96.5001 80.88 96.7001 80.68 96.9001C80.58 97.0001 80.48 97.1001 80.38 97.2001C80.08 97.5001 79.68 97.9001 79.18 98.1001C79.08 98.2001 78.88 98.3001 78.78 98.4001C78.68 98.5001 78.48 98.6001 78.28 98.6001C78.28 98.6001 78.28 98.6001 78.38 98.7001C78.38 98.8001 78.48 98.8001 78.48 98.8001C78.48 98.8001 78.48 98.8001 78.58 98.8001C82.68 101.4 83.88 104.1 82.78 108.9ZM102.38 114.6C102.28 114.6 102.18 114.6 102.08 114.6C101.98 114.6 101.88 114.6 101.78 114.6H101.68C101.58 114.6 101.38 114.6 101.28 114.6C100.98 114.6 100.68 114.6 100.28 114.6C95.78 114.6 91.28 114.6 86.78 114.6C86.48 114.6 86.28 114.6 86.08 114.6C85.98 114.6 85.98 114.6 85.88 114.6C85.78 114.6 85.78 114.6 85.68 114.5C85.28 114.3 85.18 113.9 85.28 113C85.58 109.1 87.38 106 90.08 103.3C91.68 101.7 93.28 100.2 94.98 98.7001C97.28 96.7001 97.58 94.1001 97.18 91.3001C97.08 90.6001 96.78 90.1001 96.38 89.7001C96.18 89.5001 95.98 89.4001 95.68 89.3001C95.68 89.3001 95.58 89.3001 95.58 89.2001C95.38 89.1001 95.18 89.1001 94.88 89.0001H94.78C94.68 89.0001 94.58 89.0001 94.48 89.0001C94.28 89.0001 94.18 89.0001 93.98 89.0001C93.78 89.0001 93.48 89.1001 93.28 89.2001H93.18C93.18 89.2001 93.08 89.2001 93.08 89.3001C92.98 89.4001 92.88 89.4001 92.78 89.5001C92.68 89.5001 92.68 89.6001 92.58 89.7001C92.48 89.8001 92.48 89.8001 92.38 89.9001C92.18 90.1001 92.08 90.3001 91.88 90.6001C91.48 91.5001 91.18 92.5001 91.28 93.4001C91.28 94.3001 91.08 94.6001 90.58 94.7001C90.38 94.8001 90.08 94.8001 89.68 94.7001C89.18 94.6001 88.58 94.7001 88.08 94.7001C87.78 94.7001 87.48 94.7001 87.28 94.7001C86.68 94.7001 86.28 94.7001 85.98 94.6001C85.88 94.6001 85.88 94.6001 85.88 94.6001C85.78 94.6001 85.78 94.6001 85.68 94.5001C85.58 94.5001 85.58 94.4001 85.58 94.4001C85.28 94.1001 85.38 93.6001 85.48 92.5001C85.78 89.7001 86.78 87.7001 88.48 86.5001C88.68 86.4001 88.88 86.2001 89.08 86.1001C89.28 86.0001 89.48 85.9001 89.68 85.8001C89.88 85.7001 90.08 85.6001 90.28 85.5001C90.38 85.4001 90.48 85.4001 90.68 85.4001C90.78 85.4001 90.88 85.3001 90.98 85.3001C91.18 85.2001 91.48 85.2001 91.68 85.1001C91.78 85.1001 91.98 85.0001 92.08 85.0001C92.18 85.0001 92.38 85.0001 92.48 84.9001C92.78 84.9001 92.98 84.8001 93.28 84.8001C93.68 84.8001 94.18 84.8001 94.68 84.8001C94.98 84.8001 95.28 84.8001 95.58 84.8001C95.68 84.8001 95.68 84.8001 95.78 84.8001C95.88 84.8001 95.88 84.8001 95.98 84.8001C96.28 84.8001 96.48 84.9001 96.78 84.9001C97.08 84.9001 97.38 85.0001 97.68 85.1001C97.98 85.2001 98.28 85.2001 98.48 85.3001C98.58 85.3001 98.58 85.3001 98.68 85.4001C98.88 85.5001 99.08 85.6001 99.38 85.7001C99.68 85.8001 99.88 85.9001 100.08 86.1001C100.28 86.2001 100.58 86.4001 100.78 86.5001C100.98 86.6001 101.18 86.8001 101.38 87.0001C103.68 89.0001 104.38 92.2001 103.28 96.3001C102.68 98.3001 101.58 100 100.08 101.4C98.38 103 96.68 104.5 95.08 106.1C94.08 107.1 93.18 108.3 92.68 109.8C96.18 109.8 99.38 109.8 102.58 109.8C102.68 109.8 102.78 109.8 102.78 109.8C102.88 109.8 102.88 109.8 102.98 109.8C103.08 109.8 103.08 109.8 103.18 109.8C103.28 109.8 103.28 109.8 103.38 109.9H103.48C103.58 109.9 103.58 110 103.68 110C103.88 110.2 103.98 110.5 103.98 111C103.58 113.8 103.58 114.4 102.38 114.6Z" fill="#00992C"/>
<path d="M117.18 1.1001H26.28C12.98 1.1001 2.08002 12.0001 2.08002 25.3001V70.2001C2.18002 70.2001 2.18001 70.2001 2.28001 70.1001C2.88001 69.9001 3.58002 69.9001 4.18002 69.9001H138.38C139.08 69.9001 139.68 69.8001 140.38 69.9001C140.58 69.9001 140.78 69.9001 140.88 70.0001C141.08 70.0001 141.18 70.1001 141.38 70.2001V25.3001C141.38 12.0001 130.58 1.1001 117.18 1.1001ZM57.78 32.4001C57.88 32.4001 57.98 32.4001 58.08 32.4001H58.18C58.28 32.4001 58.28 32.4001 58.38 32.4001C58.48 32.4001 58.48 32.4001 58.58 32.4001H58.68C58.78 32.4001 58.88 32.5001 58.88 32.5001L58.98 32.6001L59.08 32.7001C59.08 32.8001 59.08 32.8001 59.08 32.8001C59.08 33.1001 58.98 33.5001 59.08 33.8001C59.18 34.3001 59.18 34.9001 58.68 35.1001C58.58 35.1001 58.58 35.1001 58.48 35.1001C58.38 35.1001 58.28 35.1001 58.08 35.1001C57.18 35.0001 56.28 35.1001 55.28 35.1001H53.18C51.48 35.1001 51.08 34.4001 51.48 32.8001C51.58 32.4001 51.78 32.3001 51.98 32.3001C52.08 32.3001 52.28 32.3001 52.38 32.3001C54.18 32.5001 55.98 32.5001 57.78 32.4001ZM67.78 32.4001C68.68 32.5001 69.58 32.4001 70.48 32.4001C71.28 32.4001 72.08 32.3001 72.88 32.4001C72.98 32.4001 73.08 32.4001 73.18 32.4001C73.28 32.4001 73.28 32.4001 73.38 32.4001C73.88 32.3001 74.48 32.3001 74.38 33.3001C74.28 33.8001 74.38 34.3001 74.18 34.7001C74.18 34.8001 74.08 34.9001 74.08 34.9001C73.88 35.2001 73.48 35.4001 72.78 35.3001C71.08 35.2001 69.38 35.2001 67.58 35.3001C66.38 35.4001 66.38 34.7001 66.38 33.8001C66.38 33.4001 66.38 33.1001 66.48 32.8001C66.48 32.7001 66.58 32.7001 66.58 32.7001C66.88 32.5001 67.18 32.4001 67.78 32.4001ZM72.88 37.7001C71.98 39.6001 70.98 40.6001 68.78 40.5001C63.58 40.3001 58.28 40.4001 53.08 40.5001C52.78 40.5001 52.48 40.5001 52.28 40.4001H52.18C52.08 40.4001 52.08 40.4001 51.98 40.3001H51.88C51.78 40.3001 51.78 40.2001 51.68 40.2001C51.58 40.1001 51.58 40.1001 51.58 40.0001C51.58 39.9001 51.48 39.8001 51.48 39.7001C51.48 39.7001 51.48 39.6001 51.48 39.5001C51.48 39.4001 51.48 39.2001 51.48 39.0001C51.48 38.9001 51.48 38.8001 51.48 38.7001C51.48 38.6001 51.48 38.6001 51.48 38.6001C51.48 38.5001 51.48 38.5001 51.48 38.4001C51.48 38.3001 51.58 38.2001 51.58 38.2001C51.58 38.1001 51.68 38.1001 51.68 38.0001C51.78 37.9001 51.78 37.9001 51.88 37.9001C51.98 37.9001 51.98 37.8001 52.08 37.8001C52.28 37.7001 52.58 37.7001 52.88 37.7001C59.48 37.7001 66.08 37.7001 72.88 37.7001ZM52.58 45.8001C51.38 45.8001 51.58 45.1001 51.58 44.3001V43.9001C51.58 43.8001 51.58 43.6001 51.58 43.5001C51.58 43.4001 51.58 43.4001 51.58 43.3001C51.58 43.3001 51.58 43.2001 51.68 43.2001C51.68 43.2001 51.68 43.1001 51.78 43.1001L51.88 43.0001C51.88 42.9001 51.98 42.9001 52.08 42.9001H52.18C52.28 42.9001 52.38 42.8001 52.48 42.8001C52.58 42.8001 52.68 42.8001 52.78 42.8001C58.58 42.9001 64.38 42.8001 70.18 42.8001C70.28 42.8001 70.38 42.8001 70.48 42.8001C70.58 42.8001 70.58 42.8001 70.68 42.8001C70.78 42.8001 70.78 42.8001 70.88 42.8001C70.98 42.8001 71.08 42.9001 71.18 43.0001C71.18 43.0001 71.28 43.0001 71.28 43.1001C71.38 43.1001 71.38 43.2001 71.48 43.2001C71.58 43.3001 71.58 43.3001 71.68 43.4001C71.78 43.5001 71.88 43.6001 71.98 43.7001C72.28 44.2001 72.48 44.7001 72.78 45.2001C72.88 45.3001 72.88 45.4001 72.98 45.5001C66.08 45.8001 59.28 45.7001 52.58 45.8001ZM53.28 51.1001C51.58 51.4001 51.38 50.5001 51.48 49.2001C51.48 49.1001 51.48 49.1001 51.48 49.0001C51.48 48.7001 51.58 48.5001 51.78 48.4001L51.88 48.3001C51.98 48.3001 52.08 48.2001 52.08 48.2001C52.18 48.2001 52.28 48.2001 52.38 48.2001C54.28 48.2001 56.18 48.3001 58.08 48.2001C59.38 48.2001 58.98 49.0001 59.08 49.7001C59.08 50.5001 59.18 51.2001 57.98 51.1001C57.08 51.0001 56.18 51.1001 55.28 51.1001C54.68 51.1001 53.98 51.0001 53.28 51.1001ZM60.48 53.4001C64.58 53.4001 68.68 53.4001 72.78 53.4001C72.88 53.4001 73.08 53.4001 73.28 53.4001C73.38 53.4001 73.58 53.4001 73.68 53.4001C73.78 53.4001 73.78 53.4001 73.88 53.4001H73.98C74.08 53.4001 74.08 53.4001 74.08 53.5001L74.18 53.6001V53.7001C74.18 53.8001 74.18 53.8001 74.18 53.8001V53.9001C74.08 54.8001 74.18 56.1001 72.68 56.2001C72.38 56.2001 72.08 56.2001 71.78 56.2001H48.08C47.28 56.2001 46.68 56.2001 46.48 55.6001C46.48 55.5001 46.38 55.4001 46.38 55.3001C46.38 55.2001 46.38 55.0001 46.38 54.9001C46.38 54.8001 46.38 54.6001 46.38 54.5001C46.38 54.4001 46.38 54.4001 46.38 54.3001C46.38 54.2001 46.38 54.2001 46.38 54.1001V54.0001V53.9001C46.38 53.8001 46.48 53.8001 46.48 53.7001C46.48 53.7001 46.48 53.6001 46.58 53.6001C46.58 53.5001 46.68 53.5001 46.78 53.4001C46.78 53.4001 46.88 53.4001 46.88 53.3001C46.88 53.3001 46.98 53.3001 46.98 53.2001C47.08 53.2001 47.08 53.2001 47.08 53.2001C47.28 53.1001 47.58 53.1001 47.98 53.1001C52.28 53.4001 56.38 53.4001 60.48 53.4001ZM46.48 59.6001C46.48 59.5001 46.48 59.4001 46.48 59.4001C46.48 59.3001 46.48 59.2001 46.58 59.2001C46.58 59.1001 46.68 59.1001 46.68 59.1001L46.78 59.0001C46.88 59.0001 46.88 58.9001 46.98 58.9001C47.08 58.9001 47.18 58.9001 47.18 58.8001C47.28 58.8001 47.38 58.8001 47.48 58.8001C55.38 58.9001 63.28 58.8001 71.58 58.8001C71.18 59.2001 70.88 59.5001 70.48 59.8001C70.28 60.0001 70.08 60.1001 69.88 60.2001C69.68 60.3001 69.48 60.4001 69.38 60.5001C69.28 60.6001 69.08 60.6001 68.98 60.7001C68.78 60.8001 68.58 60.9001 68.38 61.0001C68.18 61.1001 67.98 61.2001 67.78 61.2001C67.58 61.3001 67.48 61.3001 67.28 61.3001C67.18 61.3001 67.08 61.3001 66.98 61.4001C66.68 61.5001 66.38 61.5001 65.98 61.6001C65.78 61.6001 65.48 61.6001 65.28 61.6001C62.38 61.6001 59.38 61.6001 56.48 61.6001C53.58 61.6001 50.58 61.6001 47.68 61.6001C47.58 61.6001 47.48 61.6001 47.48 61.6001C47.38 61.6001 47.38 61.6001 47.28 61.6001C47.18 61.6001 47.08 61.6001 46.98 61.5001C46.98 61.5001 46.88 61.5001 46.88 61.4001C46.78 61.4001 46.78 61.3001 46.78 61.3001C46.68 61.3001 46.68 61.2001 46.68 61.1001V61.0001C46.58 60.8001 46.58 60.7001 46.58 60.4001C46.58 60.3001 46.58 60.3001 46.58 60.2001C46.58 60.1001 46.48 59.8001 46.48 59.6001ZM77.78 30.0001C77.68 30.0001 77.58 30.0001 77.48 30.0001C77.38 30.0001 77.38 30.0001 77.38 30.0001C77.28 30.0001 77.08 29.9001 76.98 29.9001C76.88 29.9001 76.88 29.8001 76.88 29.8001C76.78 29.8001 76.78 29.7001 76.78 29.7001C76.58 29.5001 76.58 29.1001 76.58 28.7001C76.68 28.0001 76.38 27.2001 77.38 27.1001C77.48 27.1001 77.58 27.1001 77.78 27.1001H77.98C82.38 27.2001 86.78 27.1001 91.18 27.1001C91.98 27.1001 93.28 29.1001 92.88 29.8001C92.78 30.0001 92.68 30.0001 92.48 30.1001C92.28 30.1001 91.98 30.1001 91.78 30.1001H91.68C89.38 30.1001 86.98 30.1001 84.68 30.1001C83.98 30.1001 83.28 30.1001 82.58 30.1001C80.98 30.0001 79.38 30.0001 77.78 30.0001ZM81.48 44.1001C81.48 44.0001 81.48 43.9001 81.48 43.8001C81.48 43.7001 81.48 43.6001 81.48 43.6001C81.58 43.0001 81.88 42.9001 82.48 42.9001C84.28 42.9001 86.08 43.0001 87.88 42.9001C88.18 42.9001 88.48 42.9001 88.58 43.0001L88.68 43.1001L88.78 43.2001V43.3001C88.78 43.3001 88.78 43.3001 88.78 43.4001C88.78 43.5001 88.78 43.6001 88.78 43.7001C88.78 43.9001 88.78 44.0001 88.78 44.2001C88.78 44.8001 89.18 45.8001 87.88 45.7001C86.98 45.6001 86.08 45.7001 85.08 45.7001C84.48 45.7001 83.78 45.6001 83.18 45.7001C82.18 45.9001 81.68 45.6001 81.48 45.1001C81.48 45.0001 81.38 45.0001 81.38 44.9001C81.48 44.8001 81.38 44.5001 81.48 44.1001ZM82.98 48.2001C83.68 48.3001 84.48 48.2001 85.18 48.2001C85.78 48.2001 86.48 48.3001 87.08 48.2001C87.48 48.1001 87.78 48.1001 88.08 48.2001C88.18 48.2001 88.18 48.2001 88.28 48.3001C88.38 48.3001 88.38 48.3001 88.38 48.4001C88.48 48.4001 88.48 48.5001 88.48 48.5001L88.58 48.6001C88.68 48.7001 88.68 48.7001 88.68 48.8001V48.9001C88.68 49.0001 88.68 49.0001 88.78 49.1001C88.88 49.4001 88.88 49.8001 88.78 50.2001C88.78 50.9001 88.48 51.2001 87.78 51.2001C86.18 51.2001 84.58 51.1001 82.98 51.2001C82.38 51.2001 81.88 51.2001 81.68 50.9001L81.58 50.8001C81.38 50.6001 81.38 50.3001 81.38 49.8001C81.48 48.5001 81.78 48.1001 82.98 48.2001ZM88.88 60.2001C88.88 60.9001 88.98 61.5001 88.08 61.6001C87.98 61.6001 87.88 61.6001 87.68 61.6001C84.28 61.5001 80.88 61.5001 77.48 61.6001H77.38C77.28 61.6001 77.18 61.6001 77.08 61.6001C76.98 61.6001 76.98 61.6001 76.88 61.6001C76.28 61.4001 76.38 60.8001 76.38 60.2001C76.38 59.5001 76.28 58.9001 76.98 58.8001C77.08 58.8001 77.18 58.8001 77.38 58.8001C79.08 58.9001 80.78 58.8001 82.38 58.8001C84.08 58.8001 85.88 58.9001 87.58 58.8001C87.88 58.8001 87.98 58.8001 88.18 58.9001C89.08 59.0001 88.88 59.6001 88.88 60.2001ZM115.28 61.6001C114.38 61.6001 113.58 61.6001 112.78 61.6001H112.08C109.78 61.6001 107.48 61.6001 105.18 61.6001C103.88 61.6001 104.08 60.9001 104.08 60.2001C104.08 59.9001 104.08 59.6001 104.08 59.4001V59.3001C104.08 59.2001 104.08 59.2001 104.08 59.1001C104.08 59.0001 104.18 59.0001 104.18 59.0001L104.28 58.9001L104.38 58.8001H104.48C104.58 58.8001 104.58 58.8001 104.68 58.8001C104.78 58.8001 104.98 58.8001 105.08 58.8001C106.78 58.9001 108.58 58.8001 110.28 58.8001C111.98 58.8001 113.68 58.9001 115.28 58.8001C115.58 58.8001 115.78 58.8001 115.88 58.9001C115.98 58.9001 115.98 59.0001 116.08 59.0001C116.18 59.0001 116.18 59.1001 116.18 59.1001C116.28 59.2001 116.28 59.3001 116.28 59.4001C116.38 59.6001 116.38 59.8001 116.28 60.0001C116.28 60.1001 116.28 60.2001 116.28 60.3001C116.18 60.8001 116.58 61.6001 115.28 61.6001ZM115.18 56.3001C113.48 56.2001 111.88 56.3001 110.18 56.3001C108.48 56.3001 106.88 56.2001 105.18 56.3001C103.88 56.4001 104.08 55.6001 103.98 54.7001C103.98 53.9001 103.98 53.3001 105.08 53.3001C108.38 53.4001 111.78 53.4001 115.08 53.3001C115.58 53.3001 115.88 53.4001 116.08 53.6001C116.08 53.6001 116.18 53.7001 116.18 53.8001C116.28 54.0001 116.28 54.4001 116.28 54.7001V54.9001C116.28 55.7001 116.28 56.4001 115.18 56.3001ZM111.38 44.8001C111.38 45.1001 111.28 45.3001 111.18 45.4001C111.18 45.5001 111.08 45.5001 111.08 45.5001L110.98 45.6001C110.98 45.6001 110.88 45.6001 110.88 45.7001C110.78 45.7001 110.78 45.7001 110.68 45.7001C110.58 45.7001 110.48 45.7001 110.38 45.7001C108.58 45.7001 106.78 45.6001 105.08 45.7001C104.08 45.7001 104.08 45.0001 104.18 44.4001C104.18 43.9001 103.88 43.3001 104.38 43.0001C104.38 43.0001 104.38 43.0001 104.48 43.0001H104.58C104.68 42.9001 104.88 42.9001 105.08 42.9001C105.98 42.9001 106.88 42.9001 107.88 42.9001C108.28 42.9001 108.58 42.9001 108.98 42.9001C109.28 42.9001 109.58 42.9001 109.88 42.8001C109.98 42.8001 109.98 42.8001 110.08 42.8001C110.18 42.8001 110.18 42.8001 110.28 42.8001C110.48 42.8001 110.68 42.8001 110.88 42.8001C111.38 43.0001 111.48 43.7001 111.38 44.8001ZM103.98 48.8001C103.98 48.7001 103.98 48.7001 104.08 48.6001C104.18 48.4001 104.38 48.3001 104.58 48.2001C104.68 48.2001 104.68 48.2001 104.78 48.2001C104.88 48.2001 104.98 48.2001 105.08 48.2001C105.58 48.2001 106.08 48.2001 106.68 48.2001C107.98 48.2001 109.18 48.2001 110.48 48.2001C110.58 48.2001 110.78 48.2001 110.88 48.2001C110.98 48.2001 110.98 48.2001 111.08 48.2001C111.18 48.2001 111.18 48.2001 111.18 48.3001C111.18 48.3001 111.28 48.3001 111.28 48.4001C111.38 48.5001 111.38 48.6001 111.38 48.7001C111.48 49.0001 111.38 49.3001 111.38 49.6001C111.38 50.3001 111.58 51.2001 110.38 51.1001C109.48 51.0001 108.58 51.1001 107.68 51.1001H105.78C104.08 51.1001 103.58 50.5001 103.98 48.8001ZM101.18 45.7001C100.78 45.8001 100.28 45.8001 99.48 45.8001H93.58C91.08 45.8001 91.08 45.8001 90.48 43.0001H102.38C102.38 43.1001 102.38 43.2001 102.38 43.3001C102.08 45.0001 101.98 45.5001 101.18 45.7001ZM96.18 61.0001C96.08 60.8001 95.98 60.6001 95.88 60.5001C95.68 60.0001 95.48 59.4001 95.68 58.9001C95.78 58.7001 96.98 58.7001 97.08 58.9001C97.18 59.0001 97.18 59.1001 97.18 59.1001C97.18 59.2001 97.18 59.2001 97.28 59.3001C97.28 59.4001 97.28 59.4001 97.28 59.5001C97.38 60.2001 96.78 60.8001 96.48 61.6001C96.48 61.6001 96.48 61.6001 96.48 61.5001C96.28 61.3001 96.28 61.2001 96.18 61.0001ZM97.18 56.4001C97.08 56.4001 96.98 56.4001 96.88 56.4001C96.28 56.3001 95.68 56.5001 95.08 56.4001H94.98H94.88C94.88 56.4001 94.78 56.4001 94.78 56.3001C94.48 56.1001 94.28 55.8001 94.08 55.3001C93.78 54.3001 93.78 53.7001 94.38 53.5001C94.48 53.5001 94.48 53.5001 94.58 53.5001C94.78 53.5001 95.08 53.5001 95.38 53.6001C95.48 53.6001 95.48 53.6001 95.58 53.6001C95.88 53.6001 96.18 53.6001 96.48 53.6001C96.68 53.6001 96.98 53.5001 97.18 53.6001C97.28 53.7001 97.48 53.7001 97.68 53.6001C97.78 53.6001 97.88 53.6001 97.88 53.6001C98.48 53.5001 98.98 53.4001 98.98 54.3001C98.88 55.0001 98.88 55.8001 98.38 56.3001C98.28 56.4001 98.18 56.4001 98.18 56.5001C98.18 56.5001 98.08 56.5001 98.08 56.6001C98.08 56.6001 97.98 56.6001 97.98 56.7001C97.88 56.7001 97.68 56.8001 97.48 56.8001C97.28 56.4001 97.18 56.4001 97.18 56.4001ZM98.78 51.1001C97.18 51.0001 95.58 51.1001 93.98 51.1001C93.48 51.1001 93.08 51.1001 92.78 50.5001C92.48 49.9001 92.28 49.5001 92.28 49.2001C92.28 49.1001 92.28 49.0001 92.28 48.9001C92.28 48.4001 92.88 48.3001 94.28 48.3001H96.68C97.48 48.3001 98.28 48.2001 99.08 48.3001C99.28 48.3001 99.68 48.2001 99.98 48.2001C100.18 48.2001 100.28 48.2001 100.38 48.2001C100.48 48.2001 100.48 48.2001 100.48 48.2001C100.48 48.2001 100.48 48.2001 100.58 48.2001C100.58 48.2001 100.58 48.2001 100.68 48.3001C100.78 48.4001 100.78 48.5001 100.78 48.6001C100.78 48.7001 100.78 48.8001 100.78 48.8001C100.78 49.0001 100.78 49.3001 100.68 49.6001C100.68 49.7001 100.68 49.8001 100.58 49.9001C100.58 50.1001 100.48 50.3001 100.38 50.5001C100.08 50.9001 99.58 51.2001 98.78 51.1001ZM101.58 24.1001C101.68 23.3001 101.58 22.0001 102.68 21.8001C102.78 21.8001 102.88 21.8001 102.88 21.8001C105.98 21.7001 109.18 21.7001 112.38 21.8001C113.48 21.8001 114.48 21.8001 115.48 21.8001C115.58 21.8001 115.68 21.8001 115.78 21.8001C116.68 22.0001 116.08 22.9001 116.18 23.5001C116.38 24.2001 116.18 24.6001 115.48 24.6001C115.38 24.6001 115.38 24.6001 115.28 24.6001C113.08 24.5001 110.88 24.6001 108.68 24.6001C106.78 24.6001 104.88 24.6001 102.98 24.6001C102.58 24.6001 101.98 24.9001 101.68 24.6001L101.58 24.5001C101.58 24.4001 101.58 24.3001 101.58 24.1001ZM99.88 29.6001C99.88 29.5001 99.88 29.3001 99.88 29.2001C99.98 28.3001 99.88 27.2001 101.48 27.2001H107.68C110.18 27.2001 112.68 27.3001 115.08 27.2001C115.58 27.2001 115.88 27.3001 116.08 27.5001L116.18 27.6001C116.18 27.7001 116.28 27.7001 116.28 27.8001C116.38 28.0001 116.38 28.3001 116.28 28.6001C116.28 28.9001 116.28 29.3001 116.28 29.5001V29.6001V29.7001C116.18 29.9001 115.88 30.1001 115.28 30.1001C112.88 30.0001 110.48 30.1001 108.08 30.1001C105.88 30.1001 103.68 30.1001 101.48 30.1001C101.18 30.1001 100.68 30.3001 100.28 30.2001C100.18 30.2001 100.18 30.2001 100.18 30.1001L100.08 30.0001C99.88 29.9001 99.88 29.7001 99.88 29.6001ZM98.18 35.3001C98.18 35.1001 98.28 35.0001 98.28 34.8001C98.38 34.2001 98.48 33.8001 98.58 33.4001C98.58 33.3001 98.58 33.3001 98.68 33.2001C98.78 33.0001 98.78 32.9001 98.88 32.8001L98.98 32.7001L99.08 32.6001C99.18 32.6001 99.18 32.5001 99.28 32.5001C99.38 32.5001 99.38 32.4001 99.48 32.4001C99.58 32.4001 99.58 32.4001 99.68 32.4001C99.78 32.4001 99.78 32.4001 99.88 32.4001C100.28 32.4001 100.68 32.4001 101.28 32.4001C102.28 32.4001 103.28 32.4001 104.38 32.4001C106.38 32.4001 108.48 32.4001 110.48 32.4001C110.58 32.4001 110.68 32.4001 110.78 32.4001C110.88 32.4001 110.98 32.4001 110.98 32.4001C111.08 32.4001 111.18 32.5001 111.28 32.6001L111.38 32.7001C111.38 32.7001 111.38 32.8001 111.48 32.8001C111.58 33.0001 111.48 33.3001 111.48 33.6001C111.38 34.3001 111.88 35.2001 110.58 35.2001C106.38 35.3001 102.28 35.3001 98.18 35.3001ZM96.48 40.0001C96.48 39.7001 96.48 39.4001 96.58 39.2001V39.1001C96.68 38.9001 96.68 38.7001 96.78 38.6001C96.88 38.5001 96.88 38.4001 96.98 38.3001C97.08 38.2001 97.08 38.2001 97.18 38.2001C97.98 37.5001 99.18 37.8001 100.28 37.8001C103.48 37.8001 106.78 37.9001 109.98 37.8001C110.38 37.8001 110.68 37.9001 110.88 38.0001C110.98 38.1001 111.08 38.1001 111.08 38.2001C111.08 38.3001 111.18 38.3001 111.18 38.4001C111.18 38.5001 111.18 38.6001 111.28 38.7001C111.28 38.8001 111.28 38.8001 111.28 38.9001C111.28 39.1001 111.28 39.2001 111.28 39.4001C111.28 39.6001 111.28 39.7001 111.28 39.9001C111.28 40.0001 111.28 40.1001 111.28 40.1001C111.08 40.6001 110.78 40.7001 109.98 40.7001C108.28 40.6001 106.58 40.6001 104.98 40.7001C104.48 40.7001 104.18 40.6001 103.98 40.4001C103.88 40.3001 103.88 40.2001 103.88 40.0001V39.9001C103.88 39.8001 103.88 39.7001 103.88 39.6001C103.58 40.9001 102.78 40.8001 101.88 40.8001C98.18 40.8001 94.48 40.8001 90.78 40.8001C89.98 40.8001 89.18 40.8001 89.08 39.7001C89.08 39.6001 89.08 39.6001 89.08 39.5001C89.08 39.6001 89.08 39.7001 89.08 39.8001C88.98 40.6001 88.48 40.8001 87.68 40.8001C85.98 40.7001 84.28 40.7001 82.68 40.8001C81.98 40.8001 81.68 40.7001 81.48 40.3001C81.48 40.2001 81.48 40.2001 81.48 40.1001C81.48 39.9001 81.48 39.8001 81.48 39.6001C81.48 39.5001 81.48 39.4001 81.48 39.3001C81.48 38.6001 81.28 37.9001 82.58 38.0001C86.58 38.1001 90.58 38.1001 94.58 38.0001C96.18 37.6001 95.68 39.1001 96.48 40.0001ZM93.38 32.5001C93.48 32.5001 93.48 32.5001 93.48 32.5001H93.58C94.08 32.7001 94.18 33.3001 94.58 35.2001C90.48 35.2001 86.48 35.2001 82.38 35.2001C81.98 35.2001 81.78 35.1001 81.58 35.0001C81.48 34.9001 81.48 34.9001 81.48 34.8001C81.48 34.7001 81.48 34.6001 81.48 34.5001C81.48 34.4001 81.48 34.4001 81.48 34.3001C81.48 34.1001 81.48 33.9001 81.48 33.7001C81.48 33.2001 81.18 32.5001 81.88 32.3001C81.98 32.3001 82.18 32.2001 82.38 32.2001C85.98 32.2001 89.48 32.2001 93.08 32.2001C93.18 32.5001 93.28 32.5001 93.38 32.5001ZM76.58 23.1001C76.58 22.8001 76.48 22.5001 76.58 22.3001C76.58 22.2001 76.68 22.1001 76.78 22.0001C76.88 21.8001 77.18 21.7001 77.58 21.7001C81.58 21.8001 85.58 21.7001 89.48 21.7001C90.28 21.7001 90.58 22.1001 90.78 22.6001C90.88 22.9001 90.88 23.2001 90.98 23.5001C91.08 23.9001 91.18 24.3001 91.38 24.6001H77.58C77.28 24.6001 77.08 24.6001 76.88 24.5001L76.78 24.4001C76.38 24.1001 76.58 23.5001 76.58 23.1001ZM76.48 54.5001C76.48 54.4001 76.48 54.4001 76.48 54.3001C76.48 54.3001 76.48 54.3001 76.48 54.2001C76.48 54.2001 76.48 54.2001 76.48 54.1001C76.58 53.6001 76.78 53.3001 77.48 53.3001C77.58 53.3001 77.58 53.3001 77.68 53.3001C81.08 53.4001 84.48 53.4001 87.88 53.3001C89.18 53.3001 88.88 54.1001 88.88 54.8001C88.88 55.5001 89.08 56.3001 87.88 56.3001C86.68 56.2001 85.38 56.2001 84.18 56.2001C83.68 56.2001 83.18 56.2001 82.68 56.2001C82.18 56.2001 81.78 56.2001 81.28 56.2001C80.08 56.2001 78.88 56.2001 77.68 56.3001C77.28 56.3001 77.08 56.3001 76.88 56.2001C76.88 56.2001 76.78 56.2001 76.78 56.1001C76.68 56.1001 76.68 56.0001 76.68 55.9001V55.8001C76.68 55.7001 76.68 55.7001 76.58 55.6001C76.58 55.5001 76.58 55.5001 76.58 55.4001C76.58 55.3001 76.58 55.2001 76.58 55.1001C76.58 55.0001 76.58 54.9001 76.58 54.7001C76.48 54.7001 76.48 54.6001 76.48 54.5001ZM73.88 51.2001C73.68 51.2001 73.58 51.2001 73.38 51.2001H70.68C70.08 51.2001 69.58 51.1001 68.98 51.2001C68.88 51.2001 68.68 51.2001 68.58 51.3001C68.18 51.4001 67.88 51.4001 67.68 51.3001C67.68 51.3001 67.68 51.3001 67.58 51.3001C67.48 51.3001 67.48 51.3001 67.38 51.2001C66.78 50.9001 66.68 50.1001 66.78 49.2001C66.78 48.6001 66.98 48.4001 67.48 48.3001C67.58 48.3001 67.58 48.3001 67.68 48.3001C69.68 48.3001 71.58 48.3001 73.58 48.3001H73.68C75.18 48.3001 74.68 49.5001 74.88 50.3001C74.78 51.1001 74.38 51.2001 73.88 51.2001ZM72.38 27.1001C72.48 27.1001 72.68 27.1001 72.78 27.2001C72.88 27.2001 72.98 27.3001 73.08 27.3001C73.18 27.3001 73.18 27.4001 73.28 27.4001C73.38 27.4001 73.38 27.5001 73.48 27.5001C73.58 27.5001 73.58 27.6001 73.68 27.6001C73.78 27.7001 73.78 27.7001 73.78 27.8001C74.08 28.2001 74.28 28.8001 74.28 29.4001C74.18 29.8001 74.08 29.9001 73.88 30.0001C73.68 30.1001 73.38 30.0001 73.08 30.0001C68.88 30.0001 64.68 30.0001 60.48 30.0001C56.28 30.0001 52.18 30.0001 47.98 30.0001C46.78 30.0001 46.58 29.6001 46.58 28.5001C46.58 27.5001 46.78 27.1001 47.68 27.1001C47.78 27.1001 47.98 27.1001 48.08 27.1001C56.18 27.1001 64.18 27.1001 72.28 27.1001C72.28 27.1001 72.28 27.1001 72.38 27.1001ZM47.08 21.9001C47.18 21.9001 47.18 21.8001 47.28 21.8001C47.38 21.8001 47.48 21.8001 47.58 21.8001C47.68 21.8001 47.78 21.8001 47.88 21.8001C53.48 21.9001 59.18 21.8001 64.78 21.8001C67.18 21.8001 69.28 22.7001 71.08 24.4001C70.68 24.8001 70.28 24.7001 69.88 24.7001H69.78C62.48 24.7001 55.18 24.7001 47.88 24.7001C47.78 24.7001 47.58 24.7001 47.48 24.7001C46.58 24.6001 46.28 24.3001 46.28 23.2001C46.28 22.5001 46.38 22.2001 46.68 22.0001C46.98 21.9001 47.08 21.9001 47.08 21.9001ZM26.88 22.4001C26.88 22.3001 26.88 22.2001 26.98 22.1001C26.98 22.1001 26.98 22.0001 27.08 22.0001L27.18 21.9001C27.28 21.9001 27.28 21.8001 27.38 21.8001C27.48 21.8001 27.48 21.8001 27.58 21.8001C27.68 21.8001 27.78 21.8001 27.88 21.8001C32.98 21.9001 38.08 21.9001 43.18 21.8001C44.58 21.8001 44.18 22.7001 44.28 23.4001C44.38 24.3001 44.18 24.8001 43.08 24.7001C40.58 24.6001 37.98 24.7001 35.48 24.7001C32.98 24.7001 30.38 24.6001 27.88 24.7001C26.68 24.7001 26.78 24.0001 26.88 23.3001C26.88 23.0001 26.88 22.6001 26.88 22.4001ZM26.88 28.1001C26.88 28.0001 26.88 27.9001 26.88 27.8001C26.88 27.7001 26.88 27.7001 26.88 27.6001V27.5001C26.88 27.4001 26.98 27.4001 26.98 27.3001L27.08 27.2001C27.08 27.2001 27.18 27.2001 27.18 27.1001C27.18 27.1001 27.28 27.1001 27.28 27.0001C27.38 27.0001 27.38 26.9001 27.48 26.9001H27.58C27.68 26.9001 27.88 26.9001 27.98 26.9001C32.98 27.0001 37.98 27.0001 43.08 26.9001C43.38 26.9001 43.58 26.9001 43.68 27.0001C43.68 27.0001 43.78 27.0001 43.78 27.1001C43.88 27.2001 43.98 27.3001 44.08 27.4001C44.08 27.4001 44.08 27.5001 44.18 27.5001C44.28 27.8001 44.28 28.2001 44.28 28.6001C44.28 28.8001 44.28 29.0001 44.28 29.1001C44.28 29.2001 44.28 29.2001 44.28 29.3001C44.28 29.4001 44.28 29.5001 44.18 29.5001C44.18 29.6001 44.08 29.6001 44.08 29.7001L43.98 29.8001C43.98 29.8001 43.88 29.8001 43.88 29.9001C43.88 29.9001 43.78 29.9001 43.68 30.0001C43.48 30.1001 43.38 30.1001 43.08 30.1001C41.28 30.0001 39.38 30.1001 37.58 30.1001C36.78 30.1001 36.08 30.1001 35.28 30.1001C32.88 30.1001 30.48 30.0001 27.98 30.1001C27.78 30.1001 27.68 30.1001 27.58 30.1001C27.28 30.1001 27.08 30.0001 26.98 29.8001C26.88 29.7001 26.88 29.6001 26.78 29.4001C26.78 29.3001 26.78 29.3001 26.78 29.2001C26.78 29.1001 26.78 29.1001 26.78 29.0001C26.78 28.9001 26.78 28.7001 26.78 28.6001C26.88 28.4001 26.88 28.2001 26.88 28.1001ZM32.68 45.8001C32.48 45.8001 32.38 45.8001 32.28 45.8001C31.48 45.6001 31.78 44.9001 31.78 44.3001C31.78 43.7001 31.68 43.1001 32.28 43.0001C32.38 43.0001 32.48 43.0001 32.68 43.0001C33.58 43.1001 34.48 43.0001 35.48 43.0001C36.08 43.0001 36.58 43.1001 37.18 43.0001C37.38 43.0001 37.48 43.0001 37.68 42.9001C37.78 42.9001 37.88 42.9001 37.98 42.8001C38.18 42.8001 38.28 42.8001 38.48 42.8001H38.58C38.68 42.8001 38.68 42.8001 38.78 42.9001C38.88 42.9001 38.88 43.0001 38.98 43.0001C39.08 43.0001 39.08 43.1001 39.18 43.2001L39.28 43.3001C39.28 43.3001 39.28 43.4001 39.38 43.4001C39.48 43.5001 39.48 43.7001 39.48 43.8001C39.58 44.1001 39.58 44.4001 39.48 44.8001C39.48 45.4001 39.28 45.7001 38.68 45.7001C38.58 45.7001 38.58 45.7001 38.48 45.7001H38.08C36.28 45.7001 34.48 45.7001 32.68 45.8001ZM39.08 40.3001L38.98 40.4001C38.88 40.5001 38.58 40.5001 38.38 40.5001C37.48 40.4001 36.58 40.5001 35.58 40.5001C34.88 40.5001 34.18 40.4001 33.48 40.5001C31.68 40.8001 31.68 39.8001 31.78 38.5001C31.78 38.1001 31.88 37.9001 32.08 37.8001L32.18 37.7001C32.28 37.6001 32.48 37.6001 32.78 37.6001C34.68 37.6001 36.58 37.6001 38.48 37.6001C38.98 37.6001 39.28 37.7001 39.38 37.9001C39.38 38.0001 39.48 38.0001 39.48 38.1001C39.58 38.4001 39.48 38.8001 39.48 39.2001C39.28 39.6001 39.38 40.0001 39.08 40.3001C39.18 40.3001 39.08 40.3001 39.08 40.3001ZM39.28 33.4001C39.28 33.6001 39.28 33.8001 39.28 33.9001C39.28 34.3001 39.28 34.7001 39.18 35.0001C39.18 35.1001 39.08 35.1001 39.08 35.2001C38.98 35.3001 38.88 35.3001 38.78 35.3001C38.68 35.3001 38.48 35.3001 38.28 35.3001C37.38 35.2001 36.48 35.3001 35.48 35.3001C35.28 35.3001 35.08 35.3001 34.88 35.3001C34.48 35.3001 33.98 35.2001 33.58 35.3001C33.48 35.3001 33.38 35.3001 33.28 35.4001C32.88 35.4001 32.58 35.4001 32.38 35.3001C32.28 35.3001 32.28 35.2001 32.18 35.2001C31.78 34.9001 31.68 34.3001 31.78 33.5001C31.88 32.9001 31.98 32.7001 32.38 32.6001C32.48 32.6001 32.68 32.6001 32.88 32.6001C34.68 32.6001 36.58 32.7001 38.38 32.6001C38.48 32.6001 38.68 32.6001 38.78 32.6001C38.88 32.6001 38.98 32.6001 38.98 32.7001C39.08 32.7001 39.08 32.8001 39.18 32.8001C39.18 32.8001 39.28 32.8001 39.28 32.9001L39.38 33.0001C39.48 33.1001 39.48 33.2001 39.48 33.4001C39.28 33.2001 39.28 33.3001 39.28 33.4001ZM31.78 48.7001C31.88 48.4001 32.08 48.3001 32.28 48.3001C32.38 48.3001 32.58 48.3001 32.78 48.3001H32.88C34.68 48.3001 36.48 48.3001 38.28 48.3001C38.48 48.3001 38.58 48.3001 38.68 48.3001C38.78 48.3001 38.78 48.3001 38.88 48.3001C39.58 48.5001 39.38 49.1001 39.38 49.7001C39.28 50.2001 39.48 50.9001 38.88 51.1001C38.88 51.1001 38.78 51.1001 38.68 51.2001H38.58C38.48 51.2001 38.38 51.2001 38.18 51.2001C37.28 51.1001 36.38 51.2001 35.48 51.2001H33.28C33.08 51.2001 32.88 51.2001 32.68 51.1001C31.68 50.7001 31.38 49.8001 31.78 48.7001ZM27.28 53.5001C27.38 53.5001 27.48 53.4001 27.58 53.4001C27.68 53.4001 27.68 53.4001 27.78 53.4001C27.88 53.4001 28.08 53.4001 28.18 53.4001C33.18 53.5001 38.18 53.5001 43.28 53.4001C43.48 53.4001 43.58 53.4001 43.78 53.4001H43.88C43.98 53.4001 43.98 53.4001 43.98 53.5001C43.98 53.5001 44.08 53.5001 44.08 53.6001L44.18 53.7001C44.38 54.0001 44.38 54.5001 44.38 54.9001C44.38 55.5001 44.38 55.9001 44.08 56.1001C43.98 56.2001 43.88 56.2001 43.78 56.2001H43.68C43.58 56.2001 43.48 56.2001 43.28 56.2001C41.48 56.1001 39.68 56.1001 37.78 56.1001C37.08 56.1001 36.38 56.1001 35.68 56.1001C33.18 56.1001 30.68 56.0001 28.18 56.1001C27.98 56.1001 27.88 56.1001 27.68 56.1001C27.38 56.1001 27.18 56.0001 27.08 55.8001L26.98 55.7001C26.88 55.4001 26.88 55.1001 26.88 54.7001C26.88 54.2001 26.78 53.7001 27.28 53.5001ZM28.08 58.7001C33.08 58.8001 38.18 58.8001 43.08 58.7001C43.28 58.7001 43.38 58.7001 43.48 58.8001C43.58 58.8001 43.68 58.8001 43.68 58.9001C43.78 58.9001 43.78 58.9001 43.78 59.0001C43.78 59.0001 43.88 59.0001 43.88 59.1001C43.88 59.1001 43.98 59.1001 43.98 59.2001C43.98 59.2001 43.98 59.2001 44.08 59.3001V59.4001C44.18 59.6001 44.18 59.9001 44.18 60.3001C44.18 61.1001 44.38 61.9001 43.08 61.8001C40.58 61.7001 38.08 61.8001 35.58 61.8001C33.08 61.8001 30.48 61.7001 27.98 61.8001C27.68 61.8001 27.38 61.8001 27.18 61.7001C27.18 61.7001 27.18 61.7001 27.08 61.7001C26.68 61.5001 26.68 61.0001 26.68 60.4001C26.78 59.2001 26.78 58.7001 28.08 58.7001Z" fill="black"/>
<path d="M2.08002 70.3001V68.6001C2.18002 68.5001 2.18001 68.4001 2.28001 68.2001C2.88001 66.9001 3.58002 67.3001 4.18002 67.3001H138.38C139.08 67.3001 139.68 66.8001 140.38 67.1001C140.58 67.1001 140.78 50.1001 140.88 50.1001C141.08 50.3001 141.18 68.2001 141.38 68.7001V70.6001H2.08002V70.3001Z" fill="black"/>
<path d="M121.88 140.6C121.78 140.7 121.88 140.6 121.88 140.6C121.78 140.6 121.88 140.6 121.88 140.6Z" fill="#1BA442"/>
<path d="M78.48 99.1C78.38 99.1 78.48 99.1 78.48 99.1C78.38 99 78.38 99.0001 78.28 98.9001C78.28 98.9001 78.28 98.9 78.18 98.8C78.38 98.7 78.48 98.6 78.68 98.6C78.88 98.6 78.98 98.4 79.08 98.3C79.48 98 79.88 97.7001 80.28 97.4001C80.38 97.3001 80.48 97.2 80.58 97.1C80.78 96.9 80.98 96.6001 81.18 96.4001C81.48 96.0001 81.68 95.6 81.78 95.1C82.18 94 82.28 92.8001 82.08 91.4001C81.68 87.8001 79.98 85.8001 76.58 85.2001C72.48 84.5001 68.28 85.0001 64.18 84.9001C63.98 84.9001 63.88 84.9001 63.78 85.0001C63.28 85.2001 63.48 85.7001 63.48 86.2001C63.48 95.4001 63.48 104.5 63.48 113.7C63.48 114 63.58 114.3 63.68 114.5C63.88 114.8 64.18 114.9 64.68 114.9C67.98 114.9 71.28 114.9 74.58 114.9C74.88 114.9 75.28 114.9 75.58 114.8C77.48 114.6 79.18 114 80.38 113C80.58 112.8 80.78 112.7 80.98 112.5C81.88 111.6 82.48 110.5 82.78 109.1C83.88 104.1 82.68 101.4 78.48 99.1ZM70.88 89.2001C70.98 89.2001 71.18 89.3 71.28 89.3C71.68 89.3 71.98 89.3001 72.38 89.4001C72.48 89.4001 72.68 89.4001 72.78 89.5001C74.48 89.7001 75.48 90.4 75.88 91.6C75.88 91.7 75.98 91.8001 75.98 91.9001C75.98 91.9001 75.98 91.9001 75.98 92.0001C75.98 92.1001 75.98 92.2 76.08 92.3C76.08 92.3 76.08 92.3001 76.08 92.4001C76.08 92.7001 76.18 93 76.18 93.3C76.18 93.5 76.18 93.7001 76.18 93.9001C76.18 94.0001 76.18 94.1001 76.18 94.2001C76.18 94.3001 76.18 94.4001 76.08 94.5001C76.08 94.6001 75.98 94.7 75.98 94.8C75.88 95.1 75.68 95.5001 75.48 95.7001C75.38 95.8001 75.28 96 75.08 96.1C74.98 96.2 74.78 96.3001 74.68 96.5001C74.48 96.7001 74.18 96.9001 73.88 97.0001C73.78 97.0001 73.78 97.1 73.68 97.1C73.38 97.2 73.08 97.4001 72.78 97.4001C72.68 97.4001 72.68 97.5001 72.58 97.5001C72.48 97.5001 72.38 97.6 72.28 97.6C72.18 97.6 72.18 97.6 72.08 97.6C72.08 97.6 72.08 97.6 71.98 97.6C71.88 97.6 71.88 97.6 71.78 97.6C71.48 97.6 71.08 97.6001 70.78 97.5001C70.68 97.5001 70.58 97.4001 70.48 97.4001C70.38 97.4001 70.28 97.3 70.18 97.3C70.08 97.2 69.98 97.2 69.88 97.1L69.78 97.0001V96.9001C69.78 96.7001 69.78 96.5 69.78 96.3C69.78 94.7 69.88 93.1001 69.78 91.5001C69.48 89.9001 69.68 88.9001 70.88 89.2001ZM75.28 109.3C73.98 110.5 72.08 111.1 70.08 110.4C69.58 110.2 69.58 109.9 69.58 109.5C69.58 107.1 69.58 104.8 69.58 102.4C69.58 101.4 70.08 101.3 70.48 101.4C70.88 101.5 71.28 101.6 71.48 101.4C75.08 101.4 76.58 102.7 76.68 105.6C76.78 107 76.18 108.3 75.28 109.3Z" fill="#FEFEFE"/>
<path d="M59.38 93.1001C59.08 90.9001 58.38 89.2001 57.38 87.9001C57.08 87.5001 56.68 87.1001 56.28 86.7001C55.48 86.1001 54.58 85.6 53.58 85.3C53.28 85.2 52.98 85.1001 52.68 85.1001C51.78 84.9001 50.78 84.8 49.68 84.8C47.08 84.8 44.48 84.9 41.88 84.8C41.58 84.8 41.28 84.8 40.98 84.8C40.88 84.8 40.88 84.8 40.78 84.8C40.68 84.8 40.58 84.8001 40.58 84.9001C39.98 85.1001 39.78 85.7001 39.88 86.7001C39.98 91.0001 39.98 95.3001 39.98 99.7001C39.98 104.2 39.98 108.8 39.98 113.4C39.98 113.9 40.08 114.3 40.28 114.5C40.38 114.5 40.38 114.6 40.48 114.6C40.58 114.6 40.58 114.7 40.68 114.7C40.78 114.7 40.78 114.7 40.88 114.7C40.98 114.7 41.08 114.7 41.18 114.7H41.38C44.28 114.6 47.18 114.7 50.08 114.7C51.08 114.7 51.98 114.6 52.78 114.4C53.08 114.3 53.28 114.3 53.58 114.2C54.18 114 54.68 113.8 55.18 113.5C55.48 113.3 55.78 113.1 56.08 112.9C56.28 112.7 56.48 112.6 56.68 112.4C57.98 111.1 58.78 109.4 59.18 107C59.98 102.4 60.08 97.7001 59.38 93.1001ZM53.28 106.2C53.08 107.4 52.58 108.4 51.88 109.1C51.68 109.3 51.48 109.5 51.18 109.7C50.98 109.9 50.68 110 50.48 110.1C50.38 110.2 50.18 110.2 50.08 110.3C49.58 110.5 48.98 110.6 48.28 110.6C48.08 110.6 47.88 110.6 47.68 110.6C47.48 110.6 47.28 110.5 47.08 110.5C46.98 110.5 46.78 110.4 46.68 110.4C46.58 110.4 46.58 110.4 46.58 110.4C46.48 110.4 46.48 110.4 46.38 110.3C46.38 110.3 46.38 110.3 46.28 110.3C46.28 110.3 46.18 110.3 46.18 110.2L46.08 110.1C46.08 110.1 46.08 110 45.98 110C45.88 109.7 45.98 109.4 45.98 109.1C45.98 106 45.98 102.9 45.98 99.7001C45.98 96.7001 46.08 93.7001 45.98 90.7001C45.98 90.1001 46.08 89.7001 46.28 89.5001C46.38 89.5001 46.38 89.4001 46.48 89.4001C46.58 89.4001 46.68 89.3 46.68 89.3C46.78 89.3 46.88 89.3 46.98 89.3C47.08 89.3 47.18 89.3 47.28 89.3C47.48 89.3 47.58 89.3 47.78 89.3C47.88 89.3 48.08 89.3 48.18 89.3C48.38 89.3 48.48 89.3 48.68 89.3C48.88 89.3 48.98 89.3001 49.18 89.4001H49.28C49.48 89.4001 49.58 89.4001 49.78 89.5001C49.98 89.5001 50.18 89.6001 50.38 89.7001C50.58 89.7001 50.68 89.8001 50.78 89.9001C51.18 90.1001 51.58 90.3001 51.88 90.6001C52.58 91.3001 52.98 92.4001 53.18 94.1001C53.88 98.1001 53.98 102.2 53.28 106.2Z" fill="#FEFEFE"/>
<path d="M87.08 94.8001C87.88 94.8001 88.68 94.8001 89.48 94.8001C90.48 94.9001 91.08 94.7001 91.08 93.4001C90.98 92.4001 91.28 91.5001 91.68 90.6001C92.28 89.4001 93.38 88.9001 94.68 89.0001C96.08 89.1001 96.98 89.9001 97.18 91.3001C97.58 94.1001 97.28 96.7001 94.98 98.7001C93.28 100.2 91.68 101.7 90.08 103.3C87.48 106 85.68 109.1 85.28 113C85.18 114.5 85.58 114.6 86.78 114.6C91.28 114.5 95.78 114.6 100.28 114.6C103.68 114.6 103.58 114.6 103.58 111.2C103.58 110.2 103.28 109.9 102.38 110C99.18 110.1 95.98 110 92.38 110C92.98 108.4 93.78 107.3 94.78 106.3C96.48 104.7 98.18 103.1 99.78 101.6C101.28 100.2 102.38 98.5001 102.98 96.5001C104.88 89.7001 101.48 85.1001 94.48 85.1001C93.98 85.1001 93.58 85.1001 93.08 85.1001C88.28 85.3001 85.68 87.8001 85.18 92.6001C84.98 94.8001 84.98 94.8001 87.08 94.8001Z" fill="#FEFEFE"/>
<path d="M72.78 53.4001C68.68 53.4001 64.58 53.4001 60.48 53.4001C56.38 53.4001 52.28 53.4001 48.18 53.4001C46.98 53.4001 46.48 53.5001 46.48 55.0001C46.48 56.5001 47.18 56.4001 48.18 56.4001C56.08 56.4001 63.98 56.4001 71.88 56.4001C72.18 56.4001 72.48 56.4001 72.78 56.4001C74.28 56.3001 74.18 54.9001 74.28 54.0001C74.28 53.0001 73.28 53.4001 72.78 53.4001Z" fill="#F9F9F9"/>
<path d="M47.98 27.1001C46.88 27.1001 46.48 27.4001 46.48 28.6001C46.48 29.7001 46.68 30.1001 47.88 30.1001C52.08 30.0001 56.18 30.1001 60.38 30.1001C64.58 30.1001 68.78 30.1001 72.98 30.1001C73.48 30.1001 74.08 30.4001 74.18 29.5001C74.28 28.3001 73.38 27.2001 72.18 27.2001C64.08 27.1001 56.08 27.1001 47.98 27.1001Z" fill="#F9F9F9"/>
<path d="M82.58 37.6001C81.18 37.6001 81.58 38.4001 81.48 39.2001C81.38 40.1001 81.58 40.6001 82.68 40.5001C84.38 40.4001 86.08 40.4001 87.68 40.5001C88.58 40.5001 89.08 40.3001 89.08 39.1001C89.08 40.5001 89.88 40.5001 90.78 40.5001C94.48 40.5001 98.18 40.5001 101.88 40.5001C102.78 40.5001 103.58 40.6001 103.88 39.3001C103.88 40.3001 104.18 40.5001 104.98 40.5001C106.68 40.4001 108.38 40.4001 109.98 40.5001C110.98 40.6001 111.38 40.3001 111.38 39.2001C111.38 38.2001 111.38 37.6001 109.98 37.7001C106.78 37.8001 103.48 37.7001 100.28 37.7001C98.58 37.7001 96.48 37.1001 96.48 40.0001C95.58 39.2001 96.18 37.6001 94.48 37.7001C90.58 37.7001 86.58 37.7001 82.58 37.6001Z" fill="#FCFCFC"/>
<path d="M47.58 58.7002C46.18 58.7002 46.58 59.6002 46.48 60.3002C46.38 61.2002 46.68 61.6002 47.68 61.6002C53.58 61.6002 59.38 61.6002 65.28 61.6002C67.58 61.6002 69.58 60.7002 71.58 58.8002C63.38 58.8002 55.48 58.8002 47.58 58.7002Z" fill="#FDFDFD"/>
<path d="M48.08 24.7001C55.38 24.6001 62.68 24.7001 69.98 24.7001C70.38 24.7001 70.78 24.8 71.18 24.4C69.28 22.7 67.18 21.9 64.88 21.8C59.28 21.8 53.58 21.8 47.98 21.8C46.88 21.8 46.48 22.0001 46.48 23.2001C46.48 24.4001 46.88 24.7001 48.08 24.7001Z" fill="#FDFDFD"/>
<path d="M52.98 37.6001C51.88 37.6001 51.48 37.8001 51.48 39.0001C51.48 40.3001 51.98 40.5001 53.08 40.5001C58.28 40.4001 63.58 40.4001 68.78 40.5001C70.98 40.6001 71.98 39.6001 72.88 37.6001C66.08 37.7001 59.58 37.7001 52.98 37.6001Z" fill="#FCFCFC"/>
<path d="M72.78 45.8C71.98 44.6 71.78 43 70.08 43C64.28 43 58.48 43 52.68 43C51.48 43 51.58 43.7 51.58 44.4C51.58 45.1 51.38 45.9 52.58 45.9C59.28 45.7 66.08 45.8 72.78 45.8Z" fill="#FCFCFC"/>
<path d="M28.08 56.3C30.58 56.2 33.08 56.3 35.48 56.3C37.98 56.3 40.58 56.2 43.08 56.3C44.18 56.3 44.28 55.7 44.18 54.9C44.18 54.1 44.38 53.3 43.08 53.3C38.08 53.4 33.08 53.4 27.98 53.3C26.68 53.3 26.78 53.9 26.78 54.8C26.88 55.8 26.88 56.4 28.08 56.3Z" fill="#F8F8F8"/>
<path d="M28.08 30C30.48 29.9 32.98 30 35.38 30C37.98 30 40.58 29.9 43.18 30C44.28 30 44.38 29.5 44.28 28.6C44.28 27.8 44.48 27 43.18 27C38.18 27.1 33.18 27.1 28.08 27C26.88 27 26.88 27.6 26.88 28.5C26.88 29.5 26.78 30.1 28.08 30Z" fill="#F8F8F8"/>
<path d="M101.38 30C103.58 30.1 105.78 30 107.88 30C110.28 30 112.78 29.9 115.08 30C116.48 30.1 116.08 29.2 116.18 28.4C116.28 27.6 116.18 27 115.08 27C112.58 27.1 110.08 27 107.68 27C105.58 27 103.48 27 101.48 27C99.78 27 99.98 28.5 99.88 29.4C99.78 30.4 100.88 30 101.38 30Z" fill="#F7F7F7"/>
<path d="M77.78 30.0001C80.08 29.9001 82.38 30.0001 84.68 30.0001C87.08 30.0001 89.38 30.0001 91.78 30.0001C92.18 30.0001 92.58 30.2001 92.88 29.8001C93.28 29.2001 91.98 27.1001 91.18 27.1001C86.68 27.1001 82.18 27.1001 77.68 27.1001C76.28 27.1001 76.58 27.9001 76.58 28.7001C76.48 29.6001 76.68 30.1001 77.78 30.0001Z" fill="#F6F6F6"/>
<path d="M43.18 58.7002C38.18 58.8002 33.18 58.8002 28.18 58.7002C26.98 58.7002 26.98 59.3002 26.98 60.2002C26.98 61.1002 26.98 61.7002 28.18 61.7002C30.68 61.6002 33.28 61.7002 35.78 61.7002C38.28 61.7002 40.78 61.6002 43.18 61.7002C44.58 61.8002 44.28 60.9002 44.28 60.2002C44.28 59.3002 44.28 58.7002 43.18 58.7002Z" fill="#FDFDFD"/>
<path d="M27.98 24.7001C30.48 24.6001 33.08 24.7001 35.58 24.7001C38.08 24.7001 40.68 24.7001 43.18 24.7001C44.28 24.7001 44.48 24.3 44.38 23.4C44.28 22.7 44.68 21.8 43.28 21.8C38.18 21.9 33.08 21.9 27.88 21.8C26.58 21.8 26.98 22.6 26.88 23.3C26.88 24 26.68 24.7001 27.98 24.7001Z" fill="#FCFCFC"/>
<path d="M102.98 24.6001C104.88 24.7001 106.78 24.6001 108.68 24.6001C110.88 24.6001 113.08 24.6001 115.28 24.6001C116.18 24.6001 116.38 24.2001 116.28 23.5001C116.18 22.9001 116.88 21.8001 115.58 21.8001C111.38 21.7001 107.18 21.7001 102.98 21.8001C101.68 21.8001 101.78 23.3001 101.68 24.1001C101.48 25.1001 102.48 24.6001 102.98 24.6001Z" fill="#FCFCFC"/>
<path d="M77.48 24.7002C81.98 24.7002 86.58 24.7002 91.38 24.7002C90.68 23.6002 91.38 21.9002 89.58 21.9002C85.58 21.8002 81.58 21.9002 77.68 21.9002C76.58 21.9002 76.58 22.5002 76.68 23.2002C76.58 23.7002 76.18 24.7002 77.48 24.7002Z" fill="#FCFCFC"/>
<path d="M77.68 56.3C79.38 56.2 80.98 56.3 82.68 56.3C84.38 56.3 86.18 56.2 87.88 56.3C89.08 56.4 88.88 55.6 88.88 54.8C88.88 54.1 89.18 53.3 87.88 53.3C84.48 53.4 81.08 53.4 77.68 53.3C76.58 53.3 76.48 53.8001 76.48 54.7001C76.58 55.5001 76.38 56.4 77.68 56.3Z" fill="#F1F1F1"/>
<path d="M115.18 53.4C111.88 53.5 108.48 53.5 105.18 53.4C104.08 53.4 103.98 54 104.08 54.8C104.08 55.6 103.98 56.4 105.28 56.4C106.98 56.3 108.58 56.4 110.28 56.4C111.98 56.4 113.58 56.3 115.28 56.4C116.48 56.5 116.38 55.8 116.38 55C116.18 54.2 116.48 53.3 115.18 53.4Z" fill="#F7F7F7"/>
<path d="M110.48 35.3001C111.88 35.3001 111.38 34.4001 111.38 33.7001C111.48 33.0001 111.48 32.4001 110.38 32.4001C107.38 32.5001 104.28 32.4001 101.18 32.4001C98.58 32.4001 98.58 32.4001 98.18 35.2001C102.28 35.3001 106.38 35.2001 110.48 35.3001Z" fill="#FCFCFC"/>
<path d="M82.38 32.4001C81.18 32.4001 81.48 33.2001 81.58 33.8001C81.58 34.4001 81.18 35.3001 82.38 35.2001C86.48 35.2001 90.48 35.2001 94.58 35.2001C94.08 32.6001 93.98 32.4001 93.08 32.4001C89.48 32.4001 85.98 32.5001 82.38 32.4001Z" fill="#FDFDFD"/>
<path d="M87.88 58.7002C86.18 58.8002 84.38 58.7002 82.68 58.7002C80.98 58.7002 79.28 58.8002 77.68 58.7002C76.48 58.6002 76.58 59.4002 76.58 60.1002C76.58 60.8002 76.38 61.6002 77.58 61.6002C80.98 61.5002 84.38 61.5002 87.78 61.6002C88.98 61.6002 88.88 60.9002 88.78 60.2002C88.88 59.5002 89.08 58.7002 87.88 58.7002Z" fill="#FCFCFC"/>
<path d="M115.18 58.7C113.48 58.8 111.88 58.7 110.18 58.7C108.48 58.7 106.68 58.8 104.98 58.7C103.68 58.6 103.98 59.5 103.98 60.2C103.98 60.9 103.78 61.7 105.08 61.6C108.48 61.5 111.88 61.5 115.28 61.6C116.58 61.6 116.28 60.8 116.28 60.1C116.28 59.4 116.48 58.7 115.18 58.7Z" fill="#FCFCFC"/>
<path d="M93.58 45.8C95.58 45.8 97.48 45.8 99.48 45.8C102.08 45.8 102.08 45.8 102.38 43C98.38 43 94.48 43 90.48 43C90.98 45.8 90.98 45.8 93.58 45.8Z" fill="#FCFCFC"/>
<path d="M98.88 48.2C98.08 48.1 97.28 48.2 96.48 48.2C95.68 48.2 94.88 48.2 94.08 48.2C91.88 48.2 91.68 48.4 92.68 50.5C92.98 51.1 93.38 51.1 93.88 51.1C95.48 51.1 97.08 51 98.78 51.1C100.58 51.2 100.48 49.7 100.58 48.8C100.68 47.6 99.48 48.3 98.88 48.2Z" fill="#F4F4F4"/>
<path d="M73.38 48.2002C71.48 48.2002 69.48 48.2002 67.48 48.2002C66.78 48.2002 66.58 48.4002 66.58 49.1002C66.48 50.5002 66.58 51.5002 68.38 51.2002C69.08 51.1002 69.88 51.2002 70.58 51.2002C71.48 51.2002 72.38 51.2002 73.28 51.2002C73.88 51.2002 74.68 51.3002 74.48 50.3002C74.48 49.4002 74.88 48.2002 73.38 48.2002Z" fill="#F5F5F5"/>
<path d="M58.18 48.2002C56.28 48.3002 54.38 48.2002 52.48 48.2002C51.78 48.2002 51.48 48.4002 51.48 49.2002C51.38 50.6002 51.58 51.5002 53.28 51.1002C53.98 51.0002 54.68 51.1002 55.28 51.1002C56.18 51.1002 57.08 51.0002 57.98 51.1002C59.18 51.2002 59.08 50.4002 59.08 49.7002C59.08 49.0002 59.48 48.2002 58.18 48.2002Z" fill="#F4F4F4"/>
<path d="M38.18 48.2002C36.38 48.3002 34.48 48.2002 32.68 48.2002C32.28 48.2002 31.88 48.1002 31.68 48.6002C31.08 49.9002 31.78 51.1002 33.18 51.1002C33.88 51.1002 34.68 51.1002 35.38 51.1002C36.28 51.1002 37.18 51.0002 38.08 51.1002C39.28 51.2002 39.08 50.3002 39.08 49.6002C39.08 48.9002 39.48 48.1002 38.18 48.2002Z" fill="#EEEEEE"/>
<path d="M87.08 48.2C86.48 48.3 85.88 48.2 85.18 48.2C84.38 48.2 83.68 48.3 82.98 48.2C81.78 48.1 81.38 48.5 81.38 49.7C81.38 51.1 81.98 51.2 82.98 51.1C84.58 51 86.18 51.1 87.78 51.1C88.48 51.1 88.78 50.9 88.78 50.1C88.98 48.8 88.88 47.9 87.08 48.2Z" fill="#F5F5F5"/>
<path d="M105.68 51.1001C106.28 51.1001 106.88 51.1001 107.58 51.1001C108.48 51.1001 109.38 51.1001 110.28 51.1001C111.48 51.2001 111.28 50.3001 111.28 49.6001C111.28 48.9001 111.48 48.1001 110.28 48.1001C108.48 48.2001 106.78 48.1001 104.98 48.1001C104.48 48.1001 104.08 48.1001 103.98 48.7001C103.58 50.5001 103.98 51.1001 105.68 51.1001Z" fill="#EFEFEF"/>
<path d="M72.88 32.5001C72.08 32.4001 71.28 32.5001 70.48 32.5001C69.58 32.5001 68.68 32.6001 67.78 32.5001C66.58 32.4001 66.48 33.0001 66.48 33.9001C66.48 34.8001 66.48 35.5001 67.68 35.4001C69.38 35.3001 71.18 35.3001 72.88 35.4001C74.58 35.5001 74.38 34.4001 74.48 33.4001C74.58 31.9001 73.48 32.5001 72.88 32.5001Z" fill="#FBFBFB"/>
<path d="M37.58 42.9002C36.88 43.0002 36.18 42.9002 35.48 42.9002C34.58 42.9002 33.68 43.0002 32.68 42.9002C31.58 42.8002 31.68 43.5002 31.68 44.2002C31.68 44.9002 31.28 45.8002 32.58 45.7002C34.48 45.6002 36.38 45.7002 38.28 45.7002C38.98 45.7002 39.18 45.5002 39.18 44.8002C39.38 43.6002 39.28 42.6002 37.58 42.9002Z" fill="#FAFAFA"/>
<path d="M38.38 37.6001C36.48 37.7001 34.58 37.6001 32.68 37.6001C31.98 37.6001 31.78 37.8001 31.78 38.5001C31.68 39.8001 31.78 40.8001 33.48 40.5001C34.18 40.4001 34.88 40.5001 35.58 40.5001C36.48 40.5001 37.38 40.4001 38.38 40.5001C39.48 40.6001 39.38 39.9001 39.38 39.2001C39.18 38.5001 39.68 37.6001 38.38 37.6001Z" fill="#FBFBFB"/>
<path d="M58.08 32.4C56.18 32.5 54.28 32.4 52.38 32.4C51.98 32.4 51.58 32.3 51.48 32.9C51.08 34.5 51.58 35.2001 53.18 35.2001C53.88 35.2001 54.58 35.2001 55.28 35.2001C56.18 35.2001 57.08 35.1001 58.08 35.2001C59.18 35.3001 59.08 34.6 59.08 33.9C58.98 33.3 59.48 32.4 58.08 32.4Z" fill="#FBFBFB"/>
<path d="M38.18 32.4001C36.38 32.5001 34.48 32.4001 32.68 32.4001C31.98 32.4001 31.78 32.6001 31.68 33.4001C31.58 34.9001 31.88 35.6001 33.48 35.3001C34.08 35.2001 34.68 35.3001 35.38 35.3001C36.28 35.3001 37.18 35.2001 38.18 35.3001C39.38 35.4001 39.28 34.7001 39.28 33.9001C39.28 33.2001 39.48 32.4001 38.18 32.4001Z" fill="#FBFBFB"/>
<path d="M104.98 45.8C106.78 45.7 108.58 45.8 110.28 45.8C110.98 45.8 111.28 45.7 111.28 44.9C111.38 43.5 111.18 42.6 109.48 43C108.88 43.1 108.28 43 107.58 43C106.68 43 105.78 43 104.78 43C103.48 42.9 103.88 43.9 103.88 44.6C103.88 45.2 103.88 45.8 104.98 45.8Z" fill="#FAFAFA"/>
<path d="M87.88 42.9001C86.08 43.0001 84.28 42.9001 82.48 42.9001C81.78 42.9001 81.48 43.0001 81.38 43.8001C81.28 45.2001 81.48 46.1001 83.18 45.7001C83.78 45.6001 84.48 45.7001 85.08 45.7001C85.98 45.7001 86.88 45.7001 87.88 45.7001C89.28 45.8001 88.78 44.8001 88.78 44.2001C88.88 43.6001 88.98 42.9001 87.88 42.9001Z" fill="#FBFBFB"/>
<path d="M97.08 53.4002C96.88 53.3002 96.58 53.4002 96.38 53.4002C96.08 53.4002 95.68 53.4002 95.38 53.4002C93.68 53.1002 93.68 53.8002 94.08 55.2002C94.58 56.9002 95.88 56.2002 96.88 56.3002C98.78 56.6002 98.78 55.1002 98.88 54.0002C98.98 52.8002 97.68 53.6002 97.08 53.4002Z" fill="#F0F0F0"/>
<path d="M95.68 58.8C95.38 59.8 95.98 60.6 96.38 61.5C96.68 60.6 97.58 59.8 97.08 58.8C96.98 58.6 95.78 58.7 95.68 58.8Z" fill="#E3E3E3"/>
<path d="M71.58 101.4C71.08 101.9 69.58 100.5 69.58 102.4C69.58 104.8 69.58 107.1 69.58 109.5C69.58 109.9 69.58 110.3 70.08 110.4C73.38 111.6 76.88 109 76.78 105.5C76.58 102.6 75.18 101.4 71.58 101.4Z" fill="#019A2D"/>
<path d="M69.58 96.2C69.58 96.6 69.48 97 69.98 97.2C72.28 98.3 75.88 96.2 76.08 93.7C76.28 90.5 75.08 89.3 71.28 89.3C69.68 88.8 69.48 89.8 69.58 91.3C69.68 92.9 69.58 94.6 69.58 96.2Z" fill="#029A2D"/>
<path d="M45.98 99.7001C45.98 102.8 45.98 105.9 45.98 109.1C45.98 109.6 45.78 110.2 46.58 110.5C49.88 111.3 52.58 109.7 53.08 106.3C53.78 102.2 53.78 98.1001 53.18 94.1001C52.68 90.3001 51.28 89.4001 47.28 89.4001C46.18 89.4001 45.78 89.6001 45.78 90.8001C46.08 93.7001 45.98 96.7001 45.98 99.7001Z" fill="#019A2C"/>
</svg>
