<svg width="214" height="144" viewBox="0 0 214 144" fill="none" xmlns="http://www.w3.org/2000/svg">
<path d="M210.847 2.81308C210.28 2.3414 209.558 2.10031 208.823 2.13701C206.695 2.41217 204.646 3.13102 202.807 4.2479L202.26 4.53766C199.908 5.68327 197.348 6.33117 194.739 6.44156C192.004 6.52434 189.762 6.68991 186.767 7.00723C168.99 8.84219 161.059 22.5837 153.429 35.8837C149.327 43.1131 144.978 50.6185 139.085 56.3579C137.869 57.5511 136.576 58.6618 135.215 59.6829C129.116 64.2496 121.54 67.5194 115.524 69.8234C109.794 72.0309 103.531 73.9624 97.4874 75.9491C91.9493 77.7013 86.7257 79.3707 81.926 81.1643C79.7518 81.9783 77.9058 82.5439 76.2785 83.151C71.9407 84.364 67.8359 86.3042 64.1357 88.8904C62.3307 90.1183 60.5257 91.4704 59.3087 92.4638C55.6716 95.4212 52.4512 98.8653 49.7367 102.701C47.3902 106.247 44.6817 109.535 41.6553 112.51C40.6707 113.462 38.9204 113.89 36.3633 113.89C32.8021 113.736 29.2585 113.297 25.7658 112.579C21.9087 111.793 17.9934 111.331 14.0605 111.2C11.7281 111.058 9.39965 111.534 7.30547 112.579C5.73112 113.522 4.38187 114.804 3.35358 116.332L4.51586 116.856C6.2979 117.835 7.94775 119.04 9.42488 120.443C10.9717 121.883 12.695 123.116 14.5527 124.113C15.1405 124.335 15.676 124.678 16.1253 125.12C15.6467 125.838 14.9356 126.762 14.1835 127.756C10.0812 133.178 7.68822 136.599 9.05565 138.462C9.71329 138.806 10.4484 138.973 11.1889 138.945C20.1319 138.945 24.9453 136.599 31.0166 133.633C32.7806 132.778 34.572 131.895 36.7052 130.984C40.6802 129.055 44.506 126.827 48.1506 124.32C53.4562 120.816 59.008 117.229 64.3956 115.504C68.8251 114.141 73.4396 113.489 78.0699 113.573C83.9121 113.705 89.7398 114.212 95.5182 115.09C99.8256 115.642 104.284 116.222 108.646 116.47C110.355 116.567 111.914 116.622 113.445 116.622C115.492 116.622 117.537 116.511 119.571 116.291L120.064 116.125C123.127 114.221 124.562 110.137 125.957 106.191C126.561 103.961 127.522 101.846 128.802 99.9277C128.868 99.8562 128.941 99.7915 129.02 99.7346C129.071 99.6943 129.133 99.6724 129.198 99.6724C129.262 99.6724 129.325 99.6943 129.376 99.7346V99.845C128.665 115.283 122.539 125.079 116.276 133.785L112.174 138.282C115.263 138.292 118.339 137.86 121.308 136.999C133.396 133.343 142.517 125.314 149.163 112.51C150.791 109.217 152.252 105.841 153.538 102.397C153.661 102.108 154.701 101.583 154.605 103.06C154.605 103.501 154.605 103.984 154.509 104.439C154.543 104.746 154.543 105.056 154.509 105.364C154.345 107.516 153.839 112.055 153.839 112.055L157.572 110.041C166.57 104.301 173.516 92.7259 178.767 74.7213C180.955 67.2159 182.569 59.7657 183.977 53.1985C185.673 45.3068 187.136 38.5464 188.804 35.9251C191.43 31.7861 195.423 29.0267 199.306 26.2674C199.826 25.9087 200.359 25.5499 200.879 25.1636C205.747 21.7145 210.587 17.7411 211.654 10.3185V10.4288C212.242 4.91016 211.586 3.5305 210.847 2.81308Z" fill="#003545"/>
</svg>
