<svg width="64" height="64" viewBox="0 0 64 64" fill="none" xmlns="http://www.w3.org/2000/svg">
<rect width="64" height="64" fill="#1E1E1E"/>
<g clip-path="url(#clip0_0_1)">
<rect width="1280" height="832" transform="translate(-632 -363)" fill="#FAFAFA"/>
<g clip-path="url(#clip1_0_1)">
<rect width="1232" height="779" transform="translate(-584 -315)" fill="white"/>
<g filter="url(#filter0_d_0_1)">
<path d="M-62.4 -31C-62.4 -35.4183 -58.8183 -39 -54.4 -39H118.4C122.818 -39 126.4 -35.4183 126.4 -31V129C126.4 133.418 122.818 137 118.4 137H-54.4C-58.8183 137 -62.4 133.418 -62.4 129V-31Z" fill="white"/>
<path fill-rule="evenodd" clip-rule="evenodd" d="M57.4891 48.2193C54.0959 48.1384 51.4648 48.4822 49.2579 49.4325C48.5951 49.6953 47.6076 49.6953 47.5215 50.5176C47.8595 50.8613 47.8992 51.4207 48.1842 51.8993C48.7639 52.9032 49.5107 53.7972 50.3912 54.5413C51.2859 55.2153 52.1739 55.923 53.1084 56.5633C54.7586 57.6012 56.6275 58.2078 58.238 59.2592C59.1791 59.8658 60.1069 60.6072 61.0414 61.2812C61.5053 61.6249 61.8035 62.1911 62.4 62.4V62.2719C62.1018 61.881 62.0156 61.3216 61.7373 60.8835C61.3197 60.4589 60.889 60.0613 60.4648 59.6367C59.2255 57.9569 57.739 56.4815 56.0576 55.2625C54.7321 54.3122 51.7233 53.0114 51.1732 51.414L51.087 51.3264C52.0812 51.1904 53.0615 50.9648 54.0163 50.6524C55.4611 50.2615 56.7733 50.3491 58.2579 49.9784C58.9206 49.8032 59.5834 49.5875 60.2991 49.3718V48.9809C59.5303 48.2058 58.9736 47.1611 58.1784 46.4265C55.9824 44.4719 53.6403 42.694 51.1732 41.1087C49.8477 40.2393 48.1643 39.6799 46.7593 38.9452C46.2556 38.6824 45.4339 38.5543 45.1091 38.123C44.4116 37.078 43.8272 35.9594 43.3661 34.7867C42.14 32.4143 40.9471 29.7723 39.8867 27.2583C39.1246 25.5733 38.6607 23.8883 37.7262 22.3314C33.3521 14.9715 28.6003 10.5232 21.3035 6.15572C19.7328 5.24584 17.8705 4.85492 15.8756 4.38313C14.8153 4.33595 13.7549 4.25506 12.6945 4.20789C12.0317 3.90459 11.3359 3.08233 10.7063 2.69141C8.28727 1.1345 2.05088 -2.23543 0.268111 2.21963C-0.878429 5.03016 1.96473 7.80025 2.91907 9.2291C3.7388 10.2375 4.46224 11.3231 5.0796 12.471C5.37783 13.2056 5.46399 13.9875 5.74234 14.7625C6.36099 16.7408 7.09801 18.6788 7.94927 20.5656C8.39953 21.505 8.92254 22.4065 9.51333 23.2615C9.85796 23.7401 10.4478 23.9355 10.5737 24.7376C9.98388 25.6003 9.91098 26.9011 9.59949 27.9795C8.07519 32.8726 8.66503 38.925 10.8322 42.5174C11.4949 43.6025 13.1186 45.9817 15.2858 45.0718C17.1945 44.2899 16.7703 41.8232 17.3204 39.6799C17.4463 39.1542 17.3602 38.8104 17.6187 38.4667V38.4397C18.2085 39.6462 18.805 40.8122 19.355 42.0254C20.87 44.2525 22.7351 46.2107 24.8757 47.8217C25.8896 48.6035 26.6982 49.9447 27.9707 50.4232V50.2884H27.8845C27.5995 49.9575 27.2718 49.6673 26.9103 49.4257C26.1087 48.6211 25.3708 47.7535 24.7033 46.8309C22.9072 44.3456 21.3177 41.7124 19.9515 38.9587C19.2888 37.6107 18.679 36.1414 18.129 34.8002C17.8705 34.2812 17.8705 33.5062 17.4662 33.2433C16.8035 34.1936 15.9022 35.0159 15.4316 36.1819C14.6231 38.0488 14.5435 40.3404 14.2453 42.7196C14.073 42.7667 14.1591 42.7196 14.073 42.8072C12.7475 42.4567 12.2505 41.0346 11.7401 39.8214C10.4677 36.748 10.2556 31.8144 11.3624 28.2693C11.654 27.3594 12.9331 24.5084 12.4228 23.639C12.1643 22.8167 11.316 22.3449 10.8521 21.6911C10.259 20.8177 9.74648 19.8904 9.32114 18.9211C8.30715 16.5014 7.79021 13.819 6.67018 11.3993C6.06296 10.2249 5.35319 9.10832 4.54942 8.0631C3.74087 6.8971 2.8528 6.07483 2.21657 4.69316C2.00449 4.21463 1.70626 3.4328 2.04426 2.92057C2.06734 2.77206 2.13858 2.63568 2.24666 2.5331C2.35474 2.43051 2.49345 2.36761 2.64072 2.35442C3.1908 1.87589 4.76149 2.48249 5.29168 2.74534C6.76505 3.30715 8.17393 4.03031 9.49345 4.90209C10.0899 5.34018 10.7261 6.16245 11.4817 6.37813H12.3764C13.7019 6.68142 15.2593 6.46576 16.5318 6.85667C18.6824 7.58761 20.735 8.58832 22.6422 9.83569C28.2726 13.4987 32.8464 18.6154 35.897 24.6634C36.4073 25.6542 36.6194 26.5641 37.09 27.602C37.978 29.7251 39.0782 31.8886 39.9729 33.9644C40.7505 36.0104 41.7627 37.9559 42.9883 39.7607C43.6179 40.6706 46.1695 41.1424 47.316 41.621C48.3104 41.9734 49.2859 42.3783 50.2387 42.8341C51.6835 43.7373 53.1216 44.7752 54.4803 45.7727C55.143 46.2917 57.2836 47.3768 57.4096 48.2395" fill="#00758F"/>
<path fill-rule="evenodd" clip-rule="evenodd" d="M14.4343 11.2001C13.883 11.1971 13.3337 11.2834 12.8 11.4568V11.5579H12.8808C13.2635 12.2793 13.6893 12.9633 14.1547 13.6039C14.4716 14.3819 14.7761 15.1987 15.0682 16L15.149 15.8989C15.4452 15.6045 15.6774 15.2213 15.8241 14.7849C15.9707 14.3484 16.0271 13.8726 15.9879 13.4017C15.8121 13.0636 15.6524 12.7129 15.5094 12.3515C15.2733 11.8536 14.7513 11.5735 14.4343 11.2001" fill="#00758F"/>
<path d="M-61.9 -31C-61.9 -35.1421 -58.5421 -38.5 -54.4 -38.5H118.4C122.542 -38.5 125.9 -35.1421 125.9 -31V129C125.9 133.142 122.542 136.5 118.4 136.5H-54.4C-58.5421 136.5 -61.9 133.142 -61.9 129V-31Z" stroke="#E4E4E7"/>
</g>
</g>
</g>
<defs>
<filter id="filter0_d_0_1" x="-63.1025" y="-39.3512" width="190.205" height="177.405" filterUnits="userSpaceOnUse" color-interpolation-filters="sRGB">
<feFlood flood-opacity="0" result="BackgroundImageFix"/>
<feColorMatrix in="SourceAlpha" type="matrix" values="0 0 0 0 0 0 0 0 0 0 0 0 0 0 0 0 0 0 127 0" result="hardAlpha"/>
<feOffset dy="0.35125"/>
<feGaussianBlur stdDeviation="0.35125"/>
<feColorMatrix type="matrix" values="0 0 0 0 0.0627451 0 0 0 0 0.0941176 0 0 0 0 0.156863 0 0 0 0.05 0"/>
<feBlend mode="normal" in2="BackgroundImageFix" result="effect1_dropShadow_0_1"/>
<feBlend mode="normal" in="SourceGraphic" in2="effect1_dropShadow_0_1" result="shape"/>
</filter>
<clipPath id="clip0_0_1">
<rect width="1280" height="832" fill="white" transform="translate(-632 -363)"/>
</clipPath>
<clipPath id="clip1_0_1">
<rect width="1232" height="779" fill="white" transform="translate(-584 -315)"/>
</clipPath>
</defs>
</svg>
