<svg width="308" height="42" viewBox="0 0 308 42" fill="none" xmlns="http://www.w3.org/2000/svg">
<path d="M130.076 26.4805H149.424L139.181 10.7083L120.402 39.2485H111.866L134.7 4.97289C135.695 3.60733 137.332 2.71973 139.181 2.71973C140.959 2.71973 142.595 3.53907 143.591 4.90463L166.496 39.2485H157.96L153.906 32.8986H134.344L130.076 26.4805ZM218.78 32.8986V3.12938H211.524V35.8346C211.524 36.7222 211.88 37.6098 212.591 38.2243C213.303 38.9071 214.227 39.2485 215.223 39.2485H248.229L252.497 32.8986H218.78ZM98.848 27.5046C105.89 27.5046 111.581 22.0424 111.581 15.2829C111.581 8.52333 105.89 3.06112 98.848 3.06112H67.1223V39.2485H74.4491V9.47922H98.4212C101.765 9.47922 104.468 12.0738 104.468 15.3512C104.468 18.5602 101.765 21.223 98.4212 21.223H78.0058L99.6305 39.3167H110.158L95.5759 27.5046H98.848ZM22.5924 39.2485C12.2068 39.2485 3.74185 31.1917 3.74185 21.1548C3.74185 11.1179 12.2068 3.06112 22.5924 3.06112H44.5017C54.8872 3.06112 63.3522 11.1862 63.3522 21.1548C63.3522 31.1234 54.8872 39.2485 44.5017 39.2485H22.5924ZM44.0037 32.8986C50.7614 32.8986 56.1676 27.7095 56.1676 21.223C56.1676 14.7366 50.6903 9.47922 44.0037 9.47922H23.0903C16.3326 9.47922 10.9264 14.7366 10.9264 21.223C10.9264 27.7095 16.4037 32.8986 23.0903 32.8986H44.0037ZM181.577 39.2485C171.191 39.2485 162.726 31.1917 162.726 21.1548C162.726 11.1179 171.191 3.06112 181.577 3.06112H207.612L203.344 9.41096H182.075C175.317 9.41096 169.84 14.6684 169.84 21.1548C169.84 27.6412 175.317 32.8303 182.075 32.8303H208.181L203.913 39.1802L181.577 39.2485ZM270.139 32.8986C264.59 32.8986 259.824 29.3482 258.402 24.3639H289.345L293.613 18.014H258.402C259.824 13.098 264.59 9.47922 270.139 9.47922H291.408L295.676 3.12938H269.641C259.255 3.12938 250.79 11.2545 250.79 21.223C250.79 31.1916 259.255 39.3167 269.641 39.3167H291.977L296.245 32.9669L270.139 32.8986Z" fill="#F80000"/>
<path d="M299.446 6.88464C299.446 5.10942 300.94 3.74387 302.718 3.74387C304.568 3.74387 306.061 5.17769 306.061 6.88464C306.061 8.65987 304.568 10.0937 302.718 10.0937C300.94 10.0937 299.446 8.72815 299.446 6.88464ZM302.789 10.9813C305.137 10.9813 307.057 9.13782 307.057 6.88464C307.057 4.63147 305.137 2.78796 302.789 2.78796C300.442 2.78796 298.592 4.63147 298.592 6.88464C298.592 9.13782 300.442 10.9813 302.789 10.9813ZM302.362 4.49491C303.003 4.49491 303.287 4.49492 303.572 4.63148C304.425 4.90459 304.496 5.58739 304.496 5.92878C304.496 5.99705 304.496 6.13361 304.425 6.27017C304.425 6.475 304.283 6.81637 303.856 7.02121C303.785 7.02121 303.785 7.08949 303.643 7.15777L304.71 9.00129H303.643L302.647 7.29434H302.007V9.00129H301.082V4.42665L302.362 4.49491ZM302.718 6.61156C303.003 6.61156 303.287 6.61154 303.501 6.33843C303.572 6.20187 303.643 6.13361 303.643 5.92878C303.643 5.72394 303.501 5.51908 303.287 5.38252C303.074 5.31424 302.86 5.31426 302.434 5.31426H302.149V6.61156H302.718Z" fill="#F80000"/>
</svg>
