<svg width="60" height="63" viewBox="0 0 60 63" fill="none" xmlns="http://www.w3.org/2000/svg">
<rect width="60" height="63" fill="#1E1E1E"/>
<g clip-path="url(#clip0_0_1)">
<rect width="1280" height="832" transform="translate(-424 -364)" fill="#FAFAFA"/>
<g clip-path="url(#clip1_0_1)">
<rect width="1232" height="779" transform="translate(-376 -316)" fill="white"/>
<g filter="url(#filter0_d_0_1)">
<path d="M-63.2 -32C-63.2 -36.4183 -59.6183 -40 -55.2 -40H117.6C122.018 -40 125.6 -36.4183 125.6 -32V128C125.6 132.418 122.018 136 117.6 136H-55.2C-59.6183 136 -63.2 132.418 -63.2 128V-32Z" fill="white"/>
<g clip-path="url(#clip2_0_1)">
<g clip-path="url(#clip3_0_1)">
<path d="M44.9388 45.9287C45.3306 42.6304 45.2 42.1401 47.5941 42.7195L48.2035 42.7641C50.0318 42.8532 52.4259 42.4521 53.8624 41.7835C56.9094 40.3572 58.6941 37.9058 55.6906 38.5744C48.8565 40.0007 48.3776 37.6384 48.3776 37.6384C55.6035 26.6738 58.6071 12.7675 55.9953 9.33553C48.9 0.0200981 36.5812 4.43267 36.3635 4.56638H36.2765C34.9271 4.25438 33.4035 4.12067 31.7059 4.0761C28.6153 4.03153 26.2647 4.92296 24.48 6.30467C24.48 6.30467 2.54117 -2.96619 3.54235 17.9378C3.75999 22.395 9.76705 51.5892 16.9494 42.7641C19.5612 39.555 22.0859 36.8361 22.0859 36.8361C23.3482 37.683 24.8282 38.1287 26.4388 37.9504L26.5694 37.8612C26.5259 38.2624 26.5259 38.6635 26.6129 39.1092C24.7847 41.2041 25.3071 41.6052 21.6071 42.363C17.8635 43.1652 20.0835 44.5469 21.52 44.9035C23.2612 45.3492 27.2659 45.9732 30.0082 42.0955L29.9212 42.5412C30.6612 43.1207 30.6176 46.8201 30.7047 49.4498C30.7918 52.0795 30.9659 54.5309 31.4882 55.9572C32.0106 57.3835 32.62 61.1275 37.4518 60.0578C41.5871 59.1218 44.6776 57.8292 44.9388 45.9287Z" fill="black"/>
<path d="M35.9282 62.8213C33.7082 62.8213 32.2717 61.9299 31.4011 61.083C30.0953 59.835 29.5729 58.1859 29.2682 57.2053C29.2247 57.0716 29.1811 56.8933 29.1376 56.8041C28.5282 55.1104 28.3106 52.659 28.18 49.4944C28.18 49.0487 28.1364 48.5139 28.1364 48.0236C28.1364 47.7116 28.1364 47.355 28.0929 46.9539C26.0035 47.8899 23.5659 48.0681 20.9541 47.3996C19.7788 47.0876 18.56 46.5081 17.82 45.5721C15.7306 47.355 13.7717 47.0876 12.6835 46.731C10.7247 46.0624 9.02702 44.235 7.41644 41.115C6.28467 38.8864 5.15291 36.0339 4.15173 32.5573C2.36702 26.5401 1.23526 20.1664 1.10467 18.0716C0.799966 11.475 2.54114 6.75043 6.28467 4.07615C9.37526 1.84758 13.5976 1.13443 18.8647 2.02586C21.0847 2.38243 23.0435 3.00643 24.2188 3.40757C26.3953 2.07043 28.92 1.44643 31.8364 1.491C33.36 1.53557 34.84 1.66929 36.1894 1.89215C37.6694 1.44643 40.4553 0.77786 43.6329 0.822431C49.64 0.911574 54.6023 3.27386 57.9976 7.731C60.3047 10.7619 59.4776 16.779 58.3023 21.3253C57.04 26.3619 54.82 31.755 52.0776 36.435C52.8176 36.3904 53.7753 36.3013 55.1247 36.0339C58.4329 35.3207 59.347 37.3264 59.5647 37.9504C60.6094 41.1596 56.2129 43.5219 54.8635 44.1459C53.1223 44.9481 50.3364 45.483 48.0294 45.3493H47.9423L47.5506 45.3047C47.5506 45.3939 47.507 45.5276 47.507 45.6167C47.507 45.7504 47.4635 45.9287 47.4635 46.107C47.3329 52.1687 46.4623 56.0464 44.7211 58.587C42.8929 61.3059 40.2811 62.0636 38.0611 62.5539C37.2776 62.7321 36.5811 62.8213 35.9282 62.8213ZM31.5317 40.491C32.9682 41.6944 33.0988 43.8339 33.2294 47.8899C33.2294 48.3801 33.2729 48.8704 33.2729 49.3161C33.3164 50.6533 33.447 53.7287 33.9259 55.0213C34.0129 55.1996 34.0564 55.3779 34.1 55.6007C34.6223 57.2499 34.84 57.9184 36.9729 57.4727C38.8447 57.0716 39.8023 56.715 40.5423 55.6007C41.6306 53.9961 42.2835 50.6979 42.3706 45.8841L44.8953 45.9733L42.3706 45.6613C42.4141 45.4384 42.4141 45.2601 42.4576 45.0819C42.6753 43.1653 42.8494 41.6053 44.1988 40.6247C45.0694 40.0007 46.027 39.9116 46.8541 40.0007C46.1576 39.2876 45.94 38.5744 45.8964 38.2179L45.6788 37.1481L46.2882 36.2567C49.4223 31.4876 52.0341 25.6041 53.427 20.1219C54.82 14.5504 54.4282 11.5641 54.0364 11.0293C48.3776 3.63043 38.5835 6.66129 37.4953 7.01786L37.3211 7.107L36.3635 7.28529L35.8847 7.19615C34.6659 6.92872 33.2729 6.795 31.7929 6.75043C29.5294 6.70586 27.6576 7.28529 26.1341 8.44414L24.9588 9.33557L23.6094 8.75615C20.9541 7.64186 13.2494 5.45786 9.20114 8.355C6.98114 9.95957 5.93644 13.1687 6.19761 17.8487C6.28467 19.4533 7.37291 25.5596 9.11408 31.3984C11.5517 39.4213 13.6847 41.6499 14.2941 41.8281C14.3811 41.7836 14.6423 41.6499 15.0776 41.115C17.7329 37.8613 20.2141 35.1424 20.3447 35.0533L21.8247 33.4487L23.6094 34.6521C24.2188 35.0533 24.8717 35.3207 25.5682 35.3653L29.7906 31.6659L29.1811 38.0841C29.1811 38.2179 29.1811 38.3961 29.2247 38.6636L29.3988 39.867L28.6153 40.803C28.6153 40.803 28.6153 40.803 28.5717 40.8476L30.5306 41.7836L31.5317 40.491Z" fill="black"/>
<path d="M55.7341 38.5752C48.8999 40.0015 48.4211 37.6392 48.4211 37.6392C55.647 26.6746 58.6505 12.7683 56.0823 9.33634C48.987 0.065486 36.6682 4.43349 36.4505 4.5672H36.3635C35.0141 4.2552 33.4905 4.12149 31.7929 4.07692C28.7023 4.03234 26.3517 4.92377 24.567 6.30549C24.567 6.30549 2.62818 -2.96537 3.62935 17.9386C3.847 22.3958 9.85406 51.5901 17.0364 42.7649C19.6482 39.5558 22.1729 36.8369 22.1729 36.8369C23.4352 37.6838 24.9152 38.1295 26.5258 37.9512L26.6564 37.8621C26.6129 38.2632 26.6129 38.6643 26.6999 39.1101C24.8717 41.2049 25.3941 41.6061 21.6941 42.3638C17.9505 43.1661 20.1705 44.5478 21.607 44.9043C23.3482 45.3501 27.3529 45.9741 30.0952 42.0963L30.0082 42.5421C30.7482 43.1215 31.227 46.4198 31.1399 49.3615C31.0529 52.3478 31.0094 54.3535 31.5752 55.9581C32.1411 57.5626 32.707 61.1283 37.5388 60.0586C41.587 59.1672 43.6764 56.8495 43.9811 53.0163C44.1988 50.2975 44.6776 50.6986 44.6776 48.2472L45.0694 47.0883C45.5046 43.3889 45.1564 42.1855 47.6376 42.7649L48.247 42.8095C50.0752 42.8986 52.4694 42.4975 53.9058 41.8289C56.9094 40.3135 58.6941 37.9066 55.7341 38.5752Z" fill="#336791"/>
<path d="M36.1894 61.1724C32.0976 61.1724 30.8353 57.8741 30.2694 56.4924C29.4858 54.5313 29.3117 47.0879 29.5294 40.625C29.5294 40.1347 29.9211 39.7781 30.4 39.7781C30.8788 39.7781 31.227 40.1793 31.227 40.6696C31.0529 47.8901 31.3141 54.3976 31.88 55.8239C32.7506 58.0524 34.1 60.0136 37.8435 59.2113C41.4564 58.409 42.7623 57.0719 43.3282 53.5061C43.807 50.7427 44.7211 42.9873 44.8082 41.4273C44.8517 40.937 45.2435 40.5804 45.7223 40.625C46.2011 40.6696 46.5494 41.0707 46.5058 41.561C46.3753 43.1656 45.4611 50.9656 44.9823 53.8181C44.2423 58.0524 42.4141 60.0136 38.1482 60.9496C37.4517 61.1279 36.7988 61.1724 36.1894 61.1724Z" fill="white"/>
<path d="M14.2505 45.1709C13.8588 45.1709 13.5105 45.0818 13.2058 44.9927C10.5505 44.1012 8.02582 39.6887 5.71877 31.9332C3.97759 26.0498 2.84582 19.8989 2.75876 17.8932C2.49759 11.9207 3.97759 7.73093 7.2423 5.36865C13.6411 0.73322 24.4364 5.14579 24.8717 5.32408C25.307 5.50236 25.5246 5.99265 25.3505 6.43836C25.1764 6.88408 24.6976 7.10693 24.2623 6.92865C24.1317 6.88408 13.8588 2.69437 8.24347 6.79494C5.50112 8.80065 4.23876 12.5001 4.49994 17.8041C4.587 19.4978 5.6317 25.4704 7.41641 31.4429C9.46229 38.3515 11.8129 42.6749 13.8152 43.3435C14.1199 43.4326 15.0776 43.7892 16.427 42.0955C19.0388 38.8864 21.4329 36.3012 21.4764 36.3012C21.7811 35.9447 22.347 35.9447 22.6517 36.2567C22.9564 36.5687 22.9999 37.1481 22.6952 37.4601C22.6517 37.5046 20.3011 40.0007 17.7329 43.1652C16.427 44.7252 15.2517 45.1709 14.2505 45.1709Z" fill="white"/>
<path d="M48.3777 38.3962C48.2035 38.3962 48.0729 38.3516 47.8988 38.2625C47.5071 37.995 47.42 37.4602 47.6812 37.059C54.9506 26.0053 57.5188 12.6339 55.3424 9.78132C52.6 6.17103 48.7259 4.29904 43.8071 4.20989C40.1941 4.12075 37.2777 5.05675 36.7988 5.23504C36.7553 5.23504 36.7118 5.27961 36.6682 5.27961C36.1459 5.45789 35.7541 5.14589 35.6235 4.83389C35.4494 4.43275 35.58 3.94246 35.9718 3.71961C36.2765 3.54132 39.6282 2.42704 43.6329 2.47161C49.1177 2.51618 53.6447 4.70018 56.6918 8.71161C58.7812 11.4305 57.3882 18.0716 56.7353 20.7905C55.2553 26.6293 52.4694 32.9139 49.1177 38.0396C48.9 38.2625 48.6388 38.3962 48.3777 38.3962Z" fill="white"/>
<path d="M48.7259 43.5213C47.4635 43.5213 46.3318 43.343 45.6353 42.9418C44.9388 42.4961 44.8082 41.9167 44.7647 41.6047C44.5906 38.2618 46.3318 37.6378 47.2894 37.3258C47.1588 37.1476 46.9847 36.9247 46.8541 36.7464C46.3318 36.0333 45.5482 35.0973 44.9824 33.671C44.8953 33.4481 44.6341 32.9133 44.2859 32.3338C42.5012 29.0801 38.8447 22.3498 41.2388 18.8733C42.3271 17.2687 44.46 16.6447 47.6376 16.9567C47.2459 15.7087 46.2012 13.3018 44.2424 10.9396C41.9788 8.2207 37.9741 4.92242 31.7494 4.83327C28.5718 4.7887 26.0035 5.76927 24.0447 7.77499C19.6482 12.3213 19.8224 20.5224 19.8224 20.6116C19.8224 21.1018 19.4741 21.503 18.9953 21.503C18.5165 21.503 18.1247 21.1464 18.1247 20.6561C18.1247 20.2996 17.9506 11.6081 22.8259 6.57156C25.0894 4.20928 28.1365 3.05042 31.7929 3.09499C38.5835 3.18413 42.98 6.74985 45.4612 9.69156C48.16 12.9007 49.4659 16.4664 49.5965 17.6698C49.6835 18.6058 48.9871 18.7841 48.9 18.8287H48.5953C46.4624 18.4721 43.72 18.383 42.6753 19.8538C40.8906 22.439 44.3729 28.7681 45.8094 31.4424C46.2012 32.1556 46.4624 32.6459 46.5929 32.9579C47.0718 34.1613 47.7247 34.9636 48.2035 35.5876C48.6388 36.167 49.0306 36.6573 49.1612 37.2367C49.2482 37.3704 50.1624 38.663 55.4729 37.5487C56.8659 37.2367 57.6929 37.5041 57.9541 38.3064C58.4765 39.8664 55.6906 41.6493 54.1671 42.407C52.8176 43.1201 50.6412 43.5213 48.7259 43.5213ZM46.5059 41.4264C46.7235 41.6047 47.5941 41.8721 49.2918 41.783C50.8588 41.6938 52.4694 41.3818 53.4706 40.8916C54.6024 40.3567 55.4294 39.7327 55.8647 39.287H55.8212C52.3388 40.0447 49.9012 39.911 48.5082 38.975C48.4212 38.9304 48.3341 38.8858 48.2906 38.7967C48.16 38.8413 48.0729 38.8858 47.9424 38.8858C47.1588 39.1978 46.3753 39.3761 46.5059 41.4264Z" fill="white"/>
<path d="M24.0447 46.0182C23.1741 46.0182 22.26 45.8844 21.3459 45.6616C21.0847 45.5724 18.7341 44.9484 18.7341 43.3884C18.7776 41.9622 20.7365 41.561 21.4765 41.3827C24.0882 40.8479 24.2623 40.625 25.0459 39.5553C25.307 39.2433 25.5682 38.8422 26.0035 38.3964C27.3529 36.8364 28.6588 37.3713 29.1812 37.6387C30.0517 37.9953 30.7482 38.8867 31.0529 39.9119C31.3141 40.8479 31.1835 41.7839 30.7047 42.497C29.0941 44.8147 26.787 46.0182 24.0447 46.0182ZM20.6494 43.4776C20.9106 43.6559 21.3023 43.8342 21.7812 43.9679C24.0447 44.5473 27.1788 44.5919 29.3553 41.4719C29.6165 41.1153 29.5294 40.625 29.4423 40.4022C29.3117 39.8673 28.92 39.4216 28.5717 39.2433C28.0929 39.065 27.8753 38.9313 27.3094 39.5553C26.9612 40.001 26.6565 40.313 26.4388 40.625C25.3941 41.9622 24.9153 42.4079 21.8682 43.0764C21.2153 43.2102 20.8235 43.3884 20.6494 43.4776Z" fill="white"/>
<path d="M26.5259 39.8223C26.1341 39.8223 25.7424 39.5103 25.6988 39.0646C25.6988 38.9755 25.6553 38.8418 25.6553 38.708C23.6529 38.6635 21.7376 37.772 20.3012 36.212C18.4294 34.2063 17.6024 31.4429 17.9941 28.6349C18.3859 25.604 18.2553 22.9298 18.1682 21.5035C18.1247 21.1023 18.1247 20.7903 18.1247 20.612C18.1247 20.3446 18.1247 19.6315 20.3882 18.4726C21.1718 18.0715 22.7388 17.3583 24.48 17.18C27.3529 16.868 29.2682 18.1606 29.7906 20.8795C31.3141 28.0555 29.9212 31.22 28.8765 33.5378C28.7024 33.9835 28.5282 34.3846 28.3541 34.7412L28.2235 35.0978C27.7012 36.5686 27.2224 37.8166 27.3529 38.7526C27.44 39.2429 27.0918 39.6886 26.6565 39.7332C26.6129 39.8223 26.5694 39.8223 26.5259 39.8223ZM19.7788 20.8795C19.7788 21.0132 19.7788 21.1915 19.8224 21.4143C19.9094 22.9297 20.0835 25.6932 19.6482 28.9023C19.3435 31.1755 19.9965 33.404 21.52 35.0086C22.6953 36.2566 24.2624 36.9698 25.8294 36.9698C26.0035 36.212 26.3082 35.3652 26.6129 34.5183L26.7435 34.1618C26.9176 33.716 27.0918 33.2703 27.3094 32.8246C28.2671 30.596 29.4859 27.8326 28.0929 21.236C27.8318 19.9435 27.1788 19.2303 26.0906 18.9629C23.7835 18.4726 20.5188 20.2555 19.7788 20.8795Z" fill="white"/>
<path d="M24.4799 20.5231C24.4364 20.7905 25.0023 21.5482 25.6987 21.6819C26.3952 21.7711 27.0046 21.1917 27.0481 20.9242C27.0917 20.6568 26.5258 20.3448 25.8293 20.2111C25.1328 20.0774 24.5234 20.2557 24.4799 20.5231Z" fill="white"/>
<path d="M25.8294 21.9938C25.7423 21.9938 25.6988 21.9938 25.6552 21.9938C25.2199 21.9047 24.7411 21.6372 24.4364 21.2361C24.3494 21.1024 24.1317 20.7904 24.1752 20.5229C24.1752 20.4338 24.2623 20.3001 24.3929 20.1664C24.6976 19.9435 25.2199 19.8544 25.8294 19.9435C26.5694 20.0327 27.3529 20.4338 27.2658 20.9687C27.2658 21.3698 26.5694 21.9938 25.8294 21.9938ZM24.7411 20.5675C24.7846 20.7458 25.1764 21.2807 25.6988 21.3698C26.2211 21.4589 26.6564 21.0132 26.7435 20.835C26.6564 20.7458 26.3517 20.523 25.7858 20.4338C25.2199 20.3892 24.8282 20.523 24.7411 20.5675Z" fill="white"/>
<path d="M46.1141 19.9434C46.1576 20.2108 45.5917 20.9686 44.8952 21.1023C44.1988 21.1914 43.5894 20.612 43.5458 20.3446C43.5023 20.0771 44.0682 19.7651 44.7647 19.6314C45.4611 19.4977 46.1141 19.676 46.1141 19.9434Z" fill="white"/>
<path d="M44.7647 21.2365C44.0682 21.2365 43.4588 20.6571 43.4153 20.3451C43.3717 19.8994 44.0247 19.5874 44.7647 19.4983C45.4611 19.4091 46.2011 19.5428 46.2882 19.944C46.3317 20.1223 46.1576 20.4343 45.94 20.7017C45.7658 20.88 45.4176 21.192 44.9823 21.2365C44.8953 21.2365 44.8082 21.2365 44.7647 21.2365ZM45.2435 19.7211C45.1129 19.7211 44.9823 19.7211 44.8082 19.7657C44.0682 19.8548 43.6764 20.1668 43.72 20.3005C43.7635 20.4788 44.2858 21.0583 44.8953 20.9691C45.287 20.9245 45.5482 20.6571 45.7223 20.5234C45.94 20.3005 46.027 20.0777 46.027 19.9885C45.9835 19.8548 45.7223 19.7211 45.2435 19.7211Z" fill="white"/>
<path d="M47.1588 36.3012C46.9846 36.3012 46.854 36.2566 46.6799 36.1675C46.2882 35.9 46.2011 35.3652 46.4623 34.964C48.1164 32.4235 47.8117 29.8383 47.507 27.3423C47.3764 26.2726 47.2458 25.1583 47.2893 24.0886C47.3329 22.9743 47.4635 22.0829 47.594 21.1915C47.7246 20.1663 47.8988 19.1857 47.8552 18.0269C47.8117 17.5366 48.2035 17.1355 48.6388 17.0909C49.1176 17.0463 49.5093 17.4475 49.5529 17.8932C49.6399 19.2303 49.4658 20.3446 49.2917 21.4143C49.1611 22.2166 49.0305 23.0635 48.987 24.0886C48.9435 25.0246 49.074 26.0052 49.2046 27.0749C49.5093 29.7492 49.8576 32.8246 47.8552 35.8555C47.7246 36.1675 47.4199 36.3012 47.1588 36.3012Z" fill="white"/>
</g>
</g>
<path d="M-62.7 -32C-62.7 -36.1421 -59.3421 -39.5 -55.2 -39.5H117.6C121.742 -39.5 125.1 -36.1421 125.1 -32V128C125.1 132.142 121.742 135.5 117.6 135.5H-55.2C-59.3421 135.5 -62.7 132.142 -62.7 128V-32Z" stroke="#E4E4E7"/>
</g>
</g>
</g>
<defs>
<filter id="filter0_d_0_1" x="-63.9025" y="-40.3512" width="190.205" height="177.405" filterUnits="userSpaceOnUse" color-interpolation-filters="sRGB">
<feFlood flood-opacity="0" result="BackgroundImageFix"/>
<feColorMatrix in="SourceAlpha" type="matrix" values="0 0 0 0 0 0 0 0 0 0 0 0 0 0 0 0 0 0 127 0" result="hardAlpha"/>
<feOffset dy="0.35125"/>
<feGaussianBlur stdDeviation="0.35125"/>
<feColorMatrix type="matrix" values="0 0 0 0 0.0627451 0 0 0 0 0.0941176 0 0 0 0 0.156863 0 0 0 0.05 0"/>
<feBlend mode="normal" in2="BackgroundImageFix" result="effect1_dropShadow_0_1"/>
<feBlend mode="normal" in="SourceGraphic" in2="effect1_dropShadow_0_1" result="shape"/>
</filter>
<clipPath id="clip0_0_1">
<rect width="1280" height="832" fill="white" transform="translate(-424 -364)"/>
</clipPath>
<clipPath id="clip1_0_1">
<rect width="1232" height="779" fill="white" transform="translate(-376 -316)"/>
</clipPath>
<clipPath id="clip2_0_1">
<rect width="64" height="64" fill="white" transform="translate(-0.799988 -1)"/>
</clipPath>
<clipPath id="clip3_0_1">
<rect width="59.2" height="62.4" fill="white" transform="translate(0.800018 0.600006)"/>
</clipPath>
</defs>
</svg>
